<svg xmlns="http://www.w3.org/2000/svg" xmlns:xlink="http://www.w3.org/1999/xlink" viewBox="0 0 142.56 142.56"><defs><style>.cls-1{fill:#dad8f3;}.cls-2,.cls-3,.cls-5{fill:none;}.cls-2{stroke:#fff;}.cls-2,.cls-3,.cls-4,.cls-5{stroke-miterlimit:10;}.cls-3,.cls-4,.cls-5{stroke:#5c50ca;}.cls-3{stroke-width:2px;}.cls-4{fill:#fff;}.cls-6{fill:#5c50ca;}.cls-7{fill:url(#linear-gradient);}</style><linearGradient id="linear-gradient" x1="28.86" y1="95.35" x2="114.86" y2="95.35" gradientUnits="userSpaceOnUse"><stop offset="0" stop-color="#8a83d9"/><stop offset="1" stop-color="#5047b5"/></linearGradient></defs><title>Connect Icon</title><g id="Layer_2" data-name="Layer 2"><g id="Layer_1-2" data-name="Layer 1"><circle class="cls-1" cx="71.28" cy="71.28" r="71.28"/><rect class="cls-2" x="28.69" y="40.67" width="86.34" height="59.48" rx="1.54" ry="1.54"/><line class="cls-2" x1="28.69" y1="90.67" x2="115.03" y2="90.67"/><line class="cls-2" x1="65.83" y1="100.15" x2="57.62" y2="107.88"/><line class="cls-2" x1="77.89" y1="100.15" x2="86.09" y2="107.88"/><line class="cls-2" x1="46.81" y1="107.88" x2="96.93" y2="107.88"/><rect class="cls-3" x="28.69" y="40.67" width="86.34" height="59.48" rx="1.54" ry="1.54"/><rect class="cls-4" x="28.7" y="40.87" width="86.34" height="59.48" rx="1.54" ry="1.54"/><line class="cls-5" x1="28.7" y1="89.91" x2="115.05" y2="89.91"/><line class="cls-5" x1="65.84" y1="99.4" x2="57.64" y2="107.12"/><line class="cls-5" x1="77.91" y1="99.4" x2="86.11" y2="107.12"/><line class="cls-5" x1="46.83" y1="107.12" x2="96.95" y2="107.12"/><path class="cls-6" d="M71,50H58a1,1,0,0,0-1,1V64a1,1,0,0,0,1,1H71a1,1,0,0,0,1-1V51A1,1,0,0,0,71,50ZM70,63H59V52H70Zm-8-2h5a1,1,0,0,0,1-1V55a1,1,0,0,0-1-1H62a1,1,0,0,0-1,1v5A1,1,0,0,0,62,61Zm1-5h3v3H63Zm25-6H75a1,1,0,0,0-1,1V64a1,1,0,0,0,1,1H88a1,1,0,0,0,1-1V51A1,1,0,0,0,88,50ZM87,63H76V52H87Zm-8-2h5a1,1,0,0,0,1-1V55a1,1,0,0,0-1-1H79a1,1,0,0,0-1,1v5A1,1,0,0,0,79,61Zm1-5h3v3H80Zm8,11H75a1,1,0,0,0-1,1V81a1,1,0,0,0,1,1H88a1,1,0,0,0,1-1V68A1,1,0,0,0,88,67ZM87,80H76V69H87Zm-8-2h5a1,1,0,0,0,1-1V72a1,1,0,0,0-1-1H79a1,1,0,0,0-1,1v5A1,1,0,0,0,79,78Zm1-5h3v3H80Zm-9-6H66a1,1,0,0,0-1,1v4H58a1,1,0,0,0-1,1v8a1,1,0,0,0,1,1h8a1,1,0,0,0,1-1V74h4a1,1,0,0,0,1-1V68A1,1,0,0,0,71,67ZM65,80H59V74h6Zm5-8H67V69h3ZM57,68a1,1,0,0,1,1-1h4a1,1,0,0,1,0,2H58A1,1,0,0,1,57,68Zm6,10H61V76h2Zm9-2v5a1,1,0,0,1-1,1H69a1,1,0,0,1,0-2h1V76a1,1,0,0,1,2,0Z"/><path class="cls-7" d="M28.86,90.35h86a0,0,0,0,1,0,0v8.53a1.47,1.47,0,0,1-1.47,1.47H31.26a2.41,2.41,0,0,1-2.41-2.41V90.35A0,0,0,0,1,28.86,90.35Z"/></g></g></svg>