<svg xmlns="http://www.w3.org/2000/svg" width="219.78" height="48.31" viewBox="0 0 219.78 48.31">
  <metadata><?xpacket begin="﻿" id="W5M0MpCehiHzreSzNTczkc9d"?>
<x:xmpmeta xmlns:x="adobe:ns:meta/" x:xmptk="Adobe XMP Core 5.6-c142 79.160924, 2017/07/13-01:06:39        ">
   <rdf:RDF xmlns:rdf="http://www.w3.org/1999/02/22-rdf-syntax-ns#">
      <rdf:Description rdf:about=""/>
   </rdf:RDF>
</x:xmpmeta>
                                                                                                    
                                                                                                    
                                                                                                    
                                                                                                    
                                                                                                    
                                                                                                    
                                                                                                    
                                                                                                    
                                                                                                    
                                                                                                    
                                                                                                    
                                                                                                    
                                                                                                    
                                                                                                    
                                                                                                    
                                                                                                    
                                                                                                    
                                                                                                    
                                                                                                    
                                                                                                    
                           
<?xpacket end="w"?></metadata>
<defs>
    <style>
      .cls-1 {
        fill: #e1e1e1;
        fill-rule: evenodd;
      }
    </style>
  </defs>
  <path id="A_ConsenSys_Formation" data-name="A ConsenSys Formation" class="cls-1" d="M1399.97,7632.16a0.086,0.086,0,0,1,.08.08,0.079,0.079,0,0,1-.08.08,0.074,0.074,0,0,1-.08-0.08A0.079,0.079,0,0,1,1399.97,7632.16Zm-2.28-.8a0.16,0.16,0,1,1-.16.16A0.158,0.158,0,0,1,1397.69,7631.36Zm-2.19-1.02a0.243,0.243,0,0,1,.24.24,0.24,0.24,0,0,1-.48,0A0.243,0.243,0,0,1,1395.5,7630.34Zm-2.07-1.26a0.325,0.325,0,0,1,0,.65A0.325,0.325,0,0,1,1393.43,7629.08Zm-1.94-1.48a0.42,0.42,0,1,1,0,.84A0.42,0.42,0,0,1,1391.49,7627.6Zm-1.79-1.68a0.508,0.508,0,0,1,.5.5,0.5,0.5,0,0,1-1,0A0.508,0.508,0,0,1,1389.7,7625.92Zm-1.6-1.83a0.58,0.58,0,1,1-.58.58A0.58,0.58,0,0,1,1388.1,7624.09Zm-1.41-2.02a0.66,0.66,0,1,1-.66.66A0.666,0.666,0,0,1,1386.69,7622.07Zm-1.17-2.17a0.74,0.74,0,1,1-.74.74A0.738,0.738,0,0,1,1385.52,7619.9Zm-0.86-2.31a0.825,0.825,0,0,1,0,1.65A0.825,0.825,0,0,1,1384.66,7617.59Zm-0.58-2.4a0.9,0.9,0,1,1-.9.9A0.9,0.9,0,0,1,1384.08,7615.19Zm-0.27-2.47a0.985,0.985,0,1,1-.98.99A0.975,0.975,0,0,1,1383.81,7612.72Zm0.05-2.5a1.08,1.08,0,1,1-1.08,1.08A1.08,1.08,0,0,1,1383.86,7610.22Zm0.35-2.45a1.165,1.165,0,1,1-1.16,1.16A1.159,1.159,0,0,1,1384.21,7607.77Zm33.31,18.86a0.086,0.086,0,0,1,.08.08,0.079,0.079,0,0,1-.08.08,0.074,0.074,0,0,1-.08-0.08A0.079,0.079,0,0,1,1417.52,7626.63Zm-2.12,1.05a0.145,0.145,0,0,0-.14.15,0.137,0.137,0,0,0,.14.14,0.145,0.145,0,0,0,.15-0.14A0.154,0.154,0,0,0,1415.4,7627.68Zm-2.21.81a0.222,0.222,0,0,0-.22.22,0.225,0.225,0,1,0,.45,0A0.237,0.237,0,0,0,1413.19,7628.49Zm-2.29.58a0.29,0.29,0,1,1,0,.58A0.29,0.29,0,0,1,1410.9,7629.07Zm-2.35.32a0.363,0.363,0,0,0-.37.37,0.37,0.37,0,1,0,.74,0A0.363,0.363,0,0,0,1408.55,7629.39Zm-2.37.08a0.435,0.435,0,1,1-.43.44A0.429,0.429,0,0,1,1406.18,7629.47Zm-2.39-.19a0.515,0.515,0,1,1-.51.51A0.514,0.514,0,0,1,1403.79,7629.28Zm-2.35-.42a0.58,0.58,0,1,1-.58.58A0.58,0.58,0,0,1,1401.44,7628.86Zm-2.29-.74a0.66,0.66,0,1,1-.66.66A0.659,0.659,0,0,1,1399.15,7628.12Zm-2.18-1.02a0.726,0.726,0,0,1,.72.73,0.72,0.72,0,0,1-1.44,0A0.726,0.726,0,0,1,1396.97,7627.1Zm-2.05-1.3a0.805,0.805,0,1,1-.8.8A0.8,0.8,0,0,1,1394.92,7625.8Zm-1.86-1.57a0.87,0.87,0,1,1-.86.87A0.871,0.871,0,0,1,1393.06,7624.23Zm-1.65-1.8a0.95,0.95,0,1,1-.94.95A0.943,0.943,0,0,1,1391.41,7622.43Zm-1.4-1.99a1.015,1.015,0,1,1-1.01,1.02A1.014,1.014,0,0,1,1390.01,7620.44Zm-1.16-2.17a1.1,1.1,0,1,1-1.09,1.09A1.093,1.093,0,0,1,1388.85,7618.27Zm37.19-8.03a0.065,0.065,0,0,1,.06.06,0.067,0.067,0,0,1-.06.07,0.068,0.068,0,0,1-.07-0.07A0.067,0.067,0,0,1,1426.04,7610.24Zm-0.71,2.22a0.132,0.132,0,0,1,.13.13,0.13,0.13,0,1,1-.26,0A0.132,0.132,0,0,1,1425.33,7612.46Zm-0.94,2.15a0.187,0.187,0,0,0-.2.19,0.189,0.189,0,0,0,.2.2,0.187,0.187,0,0,0,.19-0.2A0.184,0.184,0,0,0,1424.39,7614.61Zm-1.17,2.01a0.258,0.258,0,0,0-.26.26,0.255,0.255,0,1,0,.51,0A0.256,0.256,0,0,0,1423.22,7616.62Zm-1.38,1.91a0.32,0.32,0,1,1-.32.32A0.316,0.316,0,0,1,1421.84,7618.53Zm-1.57,1.72a0.385,0.385,0,1,1,0,.77A0.385,0.385,0,0,1,1420.27,7620.25Zm-1.76,1.56a0.457,0.457,0,0,1,.45.46,0.45,0.45,0,1,1-.9,0A0.457,0.457,0,0,1,1418.51,7621.81Zm-1.92,1.36a0.515,0.515,0,1,1-.51.51A0.512,0.512,0,0,1,1416.59,7623.17Zm-2.08,1.09a0.58,0.58,0,0,0-.58.58,0.574,0.574,0,0,0,.58.58,0.566,0.566,0,0,0,.57-0.58A0.56,0.56,0,0,0,1414.51,7624.26Zm-2.21.81a0.66,0.66,0,1,0,.65.66A0.659,0.659,0,0,0,1412.3,7625.07Zm-2.31.52a0.717,0.717,0,0,1,.72.72,0.72,0.72,0,1,1-1.44,0A0.717,0.717,0,0,1,1409.99,7625.59Zm-2.37.19a0.79,0.79,0,1,1-.78.79A0.783,0.783,0,0,1,1407.62,7625.78Zm-2.37-.1a0.858,0.858,0,0,1,.85.86,0.85,0.85,0,0,1-1.7,0A0.858,0.858,0,0,1,1405.25,7625.68Zm-1.46.5a0.91,0.91,0,1,0-.91.92A0.928,0.928,0,0,0,1403.79,7626.18Zm-3.18-1.64a0.98,0.98,0,1,1-.98.98A0.973,0.973,0,0,1,1400.61,7624.54Zm-2.2-1.03a1.045,1.045,0,1,1-1.04,1.04A1.039,1.039,0,0,1,1398.41,7623.51Zm22.13-30.79a0.068,0.068,0,0,0,.07-0.07,0.067,0.067,0,0,0-.07-0.06,0.065,0.065,0,0,0-.06.06A0.067,0.067,0,0,0,1420.54,7592.72Zm1.11,2.18a0.149,0.149,0,0,0,.13-0.13,0.14,0.14,0,0,0-.13-0.13,0.132,0.132,0,0,0-.13.13A0.126,0.126,0,0,0,1421.65,7594.9Zm0.88,2.3a0.184,0.184,0,0,0,.19-0.19,0.19,0.19,0,1,0-.38,0A0.2,0.2,0,0,0,1422.53,7597.2Zm0.64,2.37a0.258,0.258,0,0,0,.26-0.26,0.26,0.26,0,1,0-.52,0A0.258,0.258,0,0,0,1423.17,7599.57Zm0.4,1.77a0.325,0.325,0,1,1-.32.33A0.324,0.324,0,0,1,1423.57,7601.34Zm0.14,2.32a0.39,0.39,0,1,1-.38.39A0.39,0.39,0,0,1,1423.71,7603.66Zm-0.09,2.34a0.45,0.45,0,0,0,0,.9,0.455,0.455,0,0,0,.45-0.45A0.448,0.448,0,0,0,1423.62,7606Zm-0.37,2.31a0.515,0.515,0,1,0,.51.51A0.488,0.488,0,0,0,1423.25,7608.31Zm-0.64,2.24a0.58,0.58,0,1,1-.58.58A0.58,0.58,0,0,1,1422.61,7610.55Zm-0.95,2.11a0.66,0.66,0,1,1-.65.66A0.653,0.653,0,0,1,1421.66,7612.66Zm-1.23,2a0.717,0.717,0,0,1,.72.72,0.72,0.72,0,1,1-1.44,0A0.717,0.717,0,0,1,1420.43,7614.66Zm-1.49,1.8a0.79,0.79,0,1,0,.79.79A0.8,0.8,0,0,0,1418.94,7616.46Zm-1.71,1.6a0.849,0.849,0,0,1,.85.85,0.85,0.85,0,1,1-1.7,0A0.849,0.849,0,0,1,1417.23,7618.06Zm-1.91,1.37a0.92,0.92,0,1,1-.91.92A0.918,0.918,0,0,1,1415.32,7619.43Zm-2.08,1.09a0.985,0.985,0,1,1-.98.99A0.984,0.984,0,0,1,1413.24,7620.52Zm-2.21.81a1.05,1.05,0,1,0,1.04,1.05A1.061,1.061,0,0,0,1411.03,7621.33Zm-6.77-37.2a0.067,0.067,0,0,0,.06-0.07,0.065,0.065,0,0,0-.06-0.06,0.075,0.075,0,0,0-.07.06A0.059,0.059,0,0,0,1404.26,7584.13Zm2.27,0.53a0.13,0.13,0,1,1-.13.13A0.132,0.132,0,0,1,1406.53,7584.66Zm2.18,1.27a0.19,0.19,0,1,0-.19-0.19A0.19,0.19,0,0,0,1408.71,7585.93Zm2.08,1.23a0.26,0.26,0,1,0,0-.52A0.26,0.26,0,1,0,1410.79,7587.16Zm1.94,1.46a0.322,0.322,0,0,0,.32-0.32,0.329,0.329,0,0,0-.32-0.32,0.322,0.322,0,0,0-.32.32A0.316,0.316,0,0,0,1412.73,7588.62Zm1.78,0.87a0.388,0.388,0,0,1,.38.39,0.385,0.385,0,1,1-.77,0A0.39,0.39,0,0,1,1414.51,7589.49Zm1.61,2.62a0.448,0.448,0,0,0,.45-0.45,0.457,0.457,0,0,0-.45-0.46,0.448,0.448,0,0,0-.44.46A0.433,0.433,0,0,0,1416.12,7592.11Zm1.41,1.98a0.523,0.523,0,0,0,.52-0.52,0.508,0.508,0,0,0-.52-0.51,0.5,0.5,0,0,0-.51.51A0.508,0.508,0,0,0,1417.53,7594.09Zm1.16,1a0.58,0.58,0,1,1-.58.58A0.578,0.578,0,0,1,1418.69,7595.09Zm0.24,2.8a0.651,0.651,0,0,0,.65.66,0.66,0.66,0,1,0,0-1.32A0.67,0.67,0,0,0,1418.93,7597.89Zm0.49,2.32a0.72,0.72,0,1,0,.72-0.72A0.744,0.744,0,0,0,1419.42,7600.21Zm0.21,2.39a0.785,0.785,0,1,0,.79-0.79A0.785,0.785,0,0,0,1419.63,7602.6Zm0.74,1.55a0.849,0.849,0,0,1,.85.85,0.85,0.85,0,1,1-1.7,0A0.849,0.849,0,0,1,1420.37,7604.15Zm-0.35,2.3a0.92,0.92,0,1,1-.92.92A0.915,0.915,0,0,1,1420.02,7606.45Zm-0.66,2.24a0.985,0.985,0,1,1-.98.99A0.984,0.984,0,0,1,1419.36,7608.69Zm-0.95,2.13a1.05,1.05,0,1,1-1.04,1.05A1.041,1.041,0,0,1,1418.41,7610.82Zm-31.7-21.29a0.065,0.065,0,0,1,.06.06,0.067,0.067,0,0,1-.06.07,0.068,0.068,0,0,1-.07-0.07A0.067,0.067,0,0,1,1386.71,7589.53Zm2.11-1.18a0.13,0.13,0,1,1-.13.13A0.132,0.132,0,0,1,1388.82,7588.35Zm2.21-.95a0.19,0.19,0,0,1,.19.19,0.19,0.19,0,1,1-.38,0A0.19,0.19,0,0,1,1391.03,7587.4Zm2.29-.71a0.26,0.26,0,1,1-.26.26A0.265,0.265,0,0,1,1393.32,7586.69Zm2.34-.47a0.325,0.325,0,0,1,0,.65A0.325,0.325,0,0,1,1395.66,7586.22Zm2.38-.21a0.39,0.39,0,1,1-.38.39A0.39,0.39,0,0,1,1398.04,7586.01Zm2.37,0.05a0.45,0.45,0,1,1-.44.45A0.448,0.448,0,0,1,1400.41,7586.06Zm2.36,0.29a0.515,0.515,0,1,1-.51.52A0.514,0.514,0,0,1,1402.77,7586.35Zm2.29,0.58a0.58,0.58,0,0,1,0,1.16A0.58,0.58,0,1,1,1405.06,7586.93Zm2.19,2.19a0.649,0.649,0,0,0,.64-0.66,0.645,0.645,0,1,0-1.29,0A0.645,0.645,0,0,0,1407.25,7589.12Zm1.33,0.58a0.72,0.72,0,1,0,.72-0.72A0.744,0.744,0,0,0,1408.58,7589.7Zm2.56,2.28a0.79,0.79,0,1,0,0-1.58,0.783,0.783,0,0,0-.78.79A0.8,0.8,0,0,0,1411.14,7591.98Zm1.67,1.8a0.856,0.856,0,0,0,.85-0.85,0.85,0.85,0,1,0-1.7,0A0.843,0.843,0,0,0,1412.81,7593.78Zm1.41,0.15a0.92,0.92,0,1,1-.91.92A0.915,0.915,0,0,1,1414.22,7593.93Zm1.15,2.03a0.985,0.985,0,1,1-.98.98A0.982,0.982,0,0,1,1415.37,7595.96Zm-0.18,3.22a1.045,1.045,0,1,0,2.09,0,1.039,1.039,0,0,0-1.04-1.04A1.054,1.054,0,0,0,1415.19,7599.18Zm1.62,1.21a1.115,1.115,0,1,1-1.1,1.11A1.114,1.114,0,0,1,1416.81,7600.39Zm-38.62,5.48a0.13,0.13,0,0,1,0,.26A0.13,0.13,0,0,1,1378.19,7605.87Zm0.7-2.4a0.243,0.243,0,0,1,.24.24,0.24,0.24,0,0,1-.48,0A0.243,0.243,0,0,1,1378.89,7603.47Zm0.95-2.34a0.367,0.367,0,0,1,.36.37,0.365,0.365,0,1,1-.73,0A0.369,0.369,0,0,1,1379.84,7601.13Zm1.17-2.21a0.5,0.5,0,0,1,.49.5,0.5,0.5,0,1,1-.99,0A0.5,0.5,0,0,1,1381.01,7598.92Zm1.37-2.07a0.61,0.61,0,1,1,0,1.22A0.61,0.61,0,0,1,1382.38,7596.85Zm1.57-1.92a0.74,0.74,0,1,1,0,1.48A0.74,0.74,0,0,1,1383.95,7594.93Zm1.76-1.76a0.87,0.87,0,1,1-.86.87A0.871,0.871,0,0,1,1385.71,7593.17Zm1.91-1.53a0.985,0.985,0,1,1-.98.98A0.982,0.982,0,0,1,1387.62,7591.64Zm2.06-1.31a1.115,1.115,0,1,1-1.1,1.12A1.116,1.116,0,0,1,1389.68,7590.33Zm2.21,1.44a1.219,1.219,0,0,0,1.21-1.05,1.3,1.3,0,0,0,1.1.58,1.357,1.357,0,0,0,1.2-.72,1.466,1.466,0,0,0,2.26.11,1.59,1.59,0,0,0,1.3.67,1.685,1.685,0,0,0,.91-0.28,1.638,1.638,0,0,0,.21.25,1.841,1.841,0,0,0-1.04.49,1.722,1.722,0,0,0-1.16-.46,1.677,1.677,0,0,0-1.37.71,1.623,1.623,0,0,0-1-.33,1.6,1.6,0,0,0-1.45.93,1.518,1.518,0,0,0-2.33.92,1.359,1.359,0,0,0-.73-0.21,1.43,1.43,0,0,0-1.43,1.43h0a1.285,1.285,0,0,0-.65-0.17,1.323,1.323,0,0,0-1.33,1.33,1.581,1.581,0,0,0,.04.38,1.165,1.165,0,0,0-.64-0.18,1.24,1.24,0,1,0,1.24,1.24,1.059,1.059,0,0,0-.05-0.31,1.234,1.234,0,0,0,.72.23,1.341,1.341,0,0,0,1.33-1.29,1.409,1.409,0,0,0,.75.23h0.08a1.667,1.667,0,0,0-.53,1.08,1.351,1.351,0,0,0-.28-0.04,1.564,1.564,0,0,0-1.56,1.57,0.442,0.442,0,0,0,.02.17c-0.07,0-.11-0.01-0.18-0.01a1.475,1.475,0,0,0-1.47,1.48,1.5,1.5,0,0,0,.08.47h-0.08a1.4,1.4,0,0,0-1.39,1.4,1.475,1.475,0,0,0,.2.73h-0.04a1.319,1.319,0,0,0-1.32,1.32,1.3,1.3,0,0,0,.42.96h-0.05a1.24,1.24,0,0,0-1.23,1.25,1.225,1.225,0,0,0,1.23,1.24,1.238,1.238,0,0,0,1.23-1.24,1.28,1.28,0,0,0-.36-0.89h0.08a1.3,1.3,0,0,0,.96-0.42v0.05a1.5,1.5,0,0,0,.3.9,1.464,1.464,0,0,0-.96,1.37,1.427,1.427,0,0,0,.51,1.11,1.385,1.385,0,0,0-.8,1.26,1.411,1.411,0,0,0,.74,1.23,1.318,1.318,0,0,0-.72,1.17,1.3,1.3,0,0,0,1.01,1.28,1.23,1.23,0,0,0,.56,2.33c0.08,0,.14-0.01.22-0.01a1.161,1.161,0,0,0,.34,2.27,1.16,1.16,0,0,0,0-2.32c-0.07,0-.15.01-0.21,0.01a1.228,1.228,0,0,0,.86-1.17,0.172,0.172,0,0,0-.01-0.08,1.565,1.565,0,0,0,.72.43,1.331,1.331,0,0,0-.32.89,1.364,1.364,0,0,0,1.36,1.37h0.03a1.252,1.252,0,0,0-.24.76,1.3,1.3,0,0,0,1.3,1.3,1.242,1.242,0,0,0,.38-0.05,1.282,1.282,0,0,0-.21.7,1.229,1.229,0,0,0,2.01.96,1.158,1.158,0,0,0-.29.76,1.17,1.17,0,1,0,2.02-.8,1.56,1.56,0,0,0,.44-0.08v0.01a1.412,1.412,0,0,0,.79,1.28,0.784,0.784,0,0,0-.21-0.02,1.123,1.123,0,1,0,.53.14,0.967,0.967,0,0,0,.34.05,1.426,1.426,0,0,0,.75-0.22,1.355,1.355,0,0,0,1.36,1.25,1.374,1.374,0,0,0,.98-0.41,1.292,1.292,0,0,0,1.28,1.09,1.248,1.248,0,0,1,2.34.31,1.218,1.218,0,0,0,1.21-1.11,1.162,1.162,0,1,0,1.19-1.26,1.948,1.948,0,0,0,.27-0.37,1.4,1.4,0,0,0,1.02.43,1.267,1.267,0,0,0,.44-0.06,1.091,1.091,0,0,0-.48.92,1.105,1.105,0,1,0,1.1-1.12,1.127,1.127,0,0,0-.32.05,1.459,1.459,0,0,0,.66-0.9,1.305,1.305,0,0,0,.88.32,1.364,1.364,0,0,0,1.36-1.37v-0.03a1.243,1.243,0,0,0,.75.24,1.3,1.3,0,0,0,1.3-1.3,1.737,1.737,0,0,0-.05-0.39,1.232,1.232,0,0,0,1.92-1.03,1.313,1.313,0,0,0-.27-0.78,1.152,1.152,0,0,0,.75.29,1.175,1.175,0,1,0-.8-2.03,1.375,1.375,0,0,0-.08-0.45h0.02a1.382,1.382,0,0,0,1.26-.79,1.548,1.548,0,0,0-.01.21,1.124,1.124,0,1,0,.14-0.53,1.332,1.332,0,0,0,.05-0.34,1.46,1.46,0,0,0-.22-0.76,1.357,1.357,0,0,0,1.24-1.37,1.374,1.374,0,0,0-.41-0.98,1.3,1.3,0,0,0,1.09-1.29,1.257,1.257,0,0,1,.3-2.35,1.228,1.228,0,0,0-1.1-1.23,1.166,1.166,0,1,0-1.25-1.16,1.154,1.154,0,0,0,1.04,1.16,1.242,1.242,0,0,0-1.15,1.23,1.21,1.21,0,0,0,.64,1.08,1.311,1.311,0,0,0-1.08,1.29,1.329,1.329,0,0,0,.39.92,1.358,1.358,0,0,0-1,2.04,1.429,1.429,0,0,0-1.34,1.44,1.471,1.471,0,0,0,.06.42h-0.06a1.5,1.5,0,0,0-1.49,1.5v0.11a0.974,0.974,0,0,0-.24-0.02,1.561,1.561,0,0,0-1.54,1.34,1.859,1.859,0,0,0-.43-0.06,1.6,1.6,0,0,0-1.47.93,3.153,3.153,0,0,1-3.46.08,1.457,1.457,0,0,0-1.06.74,1.425,1.425,0,0,0-1.1-.53,1.5,1.5,0,0,0-1.06.45,1.424,1.424,0,0,0-.9-0.79,1.379,1.379,0,0,0-1.23.21,2.773,2.773,0,0,1-2.52-2.08,1.117,1.117,0,0,1-1.36-1.48,1.245,1.245,0,0,1-1.17-1.82,1.379,1.379,0,0,0-.88-0.71,1.475,1.475,0,0,0,.28-1.11,1.415,1.415,0,0,0-.71-1.02,1.45,1.45,0,0,0,.56-1.16,1.387,1.387,0,0,0-.49-1.06,1.492,1.492,0,0,0,.75-0.94,1.381,1.381,0,0,0-.23-1.17,1.441,1.441,0,0,0,1.03-1.89,1.464,1.464,0,0,0,1.14-.48,1.441,1.441,0,0,0,.35-1.18,2.615,2.615,0,0,1,2.98-1.21,1.4,1.4,0,0,0,.78-0.84,1.462,1.462,0,0,0,1.11.37h0a1.211,1.211,0,0,1,2.13-.05,1.375,1.375,0,0,0,1.1-.4,1.52,1.52,0,0,0,.88.84,1.492,1.492,0,0,0,1.24-.16,1.434,1.434,0,0,0,.72,1h0a1.454,1.454,0,0,0,1.02.13,1.53,1.53,0,0,0,.13.16,1.394,1.394,0,0,0,.35.85l0.03,0.03c0.72,0.78,2.42,2.63,2.1,5.13-0.08.63,0.27,0.93,0.71,0.45a8.829,8.829,0,0,0,2.21-6.91,2.472,2.472,0,0,0-.18-0.78,2.272,2.272,0,0,0-.87-2.3,1.466,1.466,0,0,0,.05-0.42,2.22,2.22,0,0,0-1.37-2.06,2.1,2.1,0,0,0-1.78-2.05,2.024,2.024,0,0,0-1.97-1.66h-0.11a1.876,1.876,0,0,0-1.81-1.32,1.581,1.581,0,0,0-.48.06,1.818,1.818,0,0,0-2.42-.89,1.712,1.712,0,0,0-2.53-.46,1.546,1.546,0,0,0-1.28-.66,1.623,1.623,0,0,0-1.24.59,1.427,1.427,0,0,0-1.13-.55,1.445,1.445,0,0,0-1.33.87,1.339,1.339,0,0,0-2.36.73,1.22,1.22,0,0,0-2.19.74A1.163,1.163,0,0,0,1391.89,7591.77Zm-8.21,31.78a0.1,0.1,0,1,1-.1.1A0.108,0.108,0,0,1,1383.68,7623.55Zm-1.11-2.2a0.19,0.19,0,1,1,0,.38A0.19,0.19,0,1,1,1382.57,7621.35Zm-0.88-2.32a0.29,0.29,0,0,1,0,.58A0.29,0.29,0,0,1,1381.69,7619.03Zm-0.65-2.42a0.385,0.385,0,0,1,0,.77A0.385,0.385,0,1,1,1381.04,7616.61Zm-0.39-2.45a0.48,0.48,0,1,1,0,.96A0.48,0.48,0,1,1,1380.65,7614.16Zm-0.16-2.48a0.56,0.56,0,1,1-.56.56A0.559,0.559,0,0,1,1380.49,7611.68Zm0.11-2.49a0.66,0.66,0,1,1,0,1.32A0.66,0.66,0,0,1,1380.6,7609.19Zm0.36-2.46a0.755,0.755,0,1,1-.76.75A0.755,0.755,0,0,1,1380.96,7606.73Zm0.65-2.4a0.85,0.85,0,1,1-.85.85A0.849,0.849,0,0,1,1381.61,7604.33Zm0.95-2.29a0.95,0.95,0,0,1,0,1.9A0.95,0.95,0,0,1,1382.56,7602.04Zm1.23-2.16a1.045,1.045,0,0,1,0,2.09A1.045,1.045,0,0,1,1383.79,7599.88Zm1.47-1.97a1.145,1.145,0,1,1-1.13,1.14A1.139,1.139,0,0,1,1385.26,7597.91Zm53.09,5.76h-1.58l-4.58,11.54h1.2a0.524,0.524,0,0,0,.33-0.11,0.791,0.791,0,0,0,.2-0.26l1.07-2.79h5.15l1.07,2.79a0.629,0.629,0,0,0,.19.26,0.533,0.533,0,0,0,.34.11h1.2Zm-1.13,2.57c0.06-.14.11-0.31,0.17-0.49s0.11-.39.17-0.61a9.652,9.652,0,0,0,.34,1.09l1.8,4.69h-4.28Zm18.08,6.71a4.922,4.922,0,0,1-.6.47,3.022,3.022,0,0,1-.65.32,3.523,3.523,0,0,1-.76.19,6.361,6.361,0,0,1-.92.06,4.1,4.1,0,0,1-1.57-.3,3.709,3.709,0,0,1-1.26-.89,4.467,4.467,0,0,1-.84-1.43,5.543,5.543,0,0,1-.31-1.93,5.353,5.353,0,0,1,.31-1.89,4.169,4.169,0,0,1,.86-1.43,3.677,3.677,0,0,1,1.32-.91,4.372,4.372,0,0,1,1.68-.32,4.888,4.888,0,0,1,.91.08,3.8,3.8,0,0,1,.69.19,3.017,3.017,0,0,1,.51.24c0.14,0.08.27,0.17,0.38,0.24a2.776,2.776,0,0,0,.27.19,0.424,0.424,0,0,0,.22.08,0.328,0.328,0,0,0,.21-0.06,0.535,0.535,0,0,0,.13-0.13l0.5-.72a5.618,5.618,0,0,0-1.63-1.07,5.55,5.55,0,0,0-2.18-.39,6.13,6.13,0,0,0-2.34.43,5.229,5.229,0,0,0-1.82,1.21,5.465,5.465,0,0,0-1.18,1.87,6.594,6.594,0,0,0-.42,2.39,7.007,7.007,0,0,0,.39,2.39,5.508,5.508,0,0,0,1.1,1.87,5.012,5.012,0,0,0,1.72,1.21,5.857,5.857,0,0,0,2.25.43,5.918,5.918,0,0,0,2.43-.46,4.933,4.933,0,0,0,1.71-1.28l-0.61-.67a0.333,0.333,0,0,0-.23-0.11,0.381,0.381,0,0,0-.27.13h0Zm4.6-5.73a3.5,3.5,0,0,0-1.22.84,3.9,3.9,0,0,0-.78,1.33,5.3,5.3,0,0,0-.27,1.74,5.192,5.192,0,0,0,.27,1.73,3.9,3.9,0,0,0,.78,1.33,3.5,3.5,0,0,0,1.22.84,4.586,4.586,0,0,0,3.21,0,3.412,3.412,0,0,0,1.22-.84,3.877,3.877,0,0,0,.77-1.33,5.192,5.192,0,0,0,.27-1.73,5.3,5.3,0,0,0-.27-1.74,3.877,3.877,0,0,0-.77-1.33,3.412,3.412,0,0,0-1.22-.84A4.443,4.443,0,0,0,1459.9,7607.22Zm0.55,6.77a2,2,0,0,1-.75-0.6,2.669,2.669,0,0,1-.45-0.96,5.1,5.1,0,0,1-.15-1.3,5.216,5.216,0,0,1,.15-1.3,2.8,2.8,0,0,1,.45-0.97,2,2,0,0,1,.75-0.6,2.475,2.475,0,0,1,1.06-.21,2.065,2.065,0,0,1,1.79.81,4.643,4.643,0,0,1,0,4.53,2.065,2.065,0,0,1-1.79.81A2.475,2.475,0,0,1,1460.45,7613.99Zm8.1,1.22v-6.01a3.764,3.764,0,0,1,1.02-.83,2.417,2.417,0,0,1,1.18-.31,1.542,1.542,0,0,1,1.28.52,2.2,2.2,0,0,1,.42,1.43v5.2h1.43v-5.2a4.169,4.169,0,0,0-.18-1.26,2.939,2.939,0,0,0-.51-0.98,2.335,2.335,0,0,0-.85-0.63,2.89,2.89,0,0,0-1.18-.22,3.093,3.093,0,0,0-1.51.36,5.029,5.029,0,0,0-1.18.95l-0.11-.88a0.359,0.359,0,0,0-.38-0.3h-0.85v8.16h1.42Zm12.45-7.34a3.5,3.5,0,0,0-1.11-.7,4.005,4.005,0,0,0-1.43-.25,3.873,3.873,0,0,0-1.23.19,2.8,2.8,0,0,0-.9.52,2.2,2.2,0,0,0-.75,1.66,2.018,2.018,0,0,0,.18.89,1.923,1.923,0,0,0,.47.62,2.86,2.86,0,0,0,.68.41,7.147,7.147,0,0,0,.77.29c0.27,0.09.53,0.17,0.78,0.25a4.378,4.378,0,0,1,.68.27,1.508,1.508,0,0,1,.47.38,0.874,0.874,0,0,1,.18.56,1.3,1.3,0,0,1-.1.52,1.021,1.021,0,0,1-.3.42,1.48,1.48,0,0,1-.52.3,2.333,2.333,0,0,1-.73.11,2.407,2.407,0,0,1-.82-0.12,2.337,2.337,0,0,1-.55-0.25c-0.15-.09-0.28-0.17-0.39-0.25a0.529,0.529,0,0,0-.3-0.11,0.392,0.392,0,0,0-.23.06,0.463,0.463,0,0,0-.15.16l-0.34.55a4.035,4.035,0,0,0,2.71.99,4.051,4.051,0,0,0,1.31-.2,2.828,2.828,0,0,0,.96-0.56,2.216,2.216,0,0,0,.59-0.83,2.507,2.507,0,0,0,.2-1.04,1.8,1.8,0,0,0-.18-0.84,1.946,1.946,0,0,0-.47-0.59,2.706,2.706,0,0,0-.68-0.4c-0.25-.11-0.51-0.21-0.77-0.3s-0.52-.17-0.77-0.25a4.817,4.817,0,0,1-.68-0.27,1.584,1.584,0,0,1-.47-0.36,0.765,0.765,0,0,1-.18-0.52,0.957,0.957,0,0,1,.11-0.47,1.078,1.078,0,0,1,.31-0.37,1.416,1.416,0,0,1,.49-0.25,1.888,1.888,0,0,1,.65-0.1,2.2,2.2,0,0,1,.72.1,2.57,2.57,0,0,1,.52.2c0.15,0.07.28,0.13,0.38,0.19a0.538,0.538,0,0,0,.27.09,0.34,0.34,0,0,0,.3-0.17Zm3.61-.64a3.473,3.473,0,0,0-1.2.86,3.773,3.773,0,0,0-.74,1.28,4.617,4.617,0,0,0-.27,1.59,5.606,5.606,0,0,0,.29,1.87,3.952,3.952,0,0,0,.81,1.37,3.336,3.336,0,0,0,1.22.84,4.146,4.146,0,0,0,1.55.28,5.339,5.339,0,0,0,.89-0.07,6.173,6.173,0,0,0,.87-0.23,5.273,5.273,0,0,0,.79-0.39,2.855,2.855,0,0,0,.63-0.57l-0.4-.52a0.307,0.307,0,0,0-.27-0.14,0.7,0.7,0,0,0-.33.13c-0.12.08-.28,0.17-0.46,0.27a3.884,3.884,0,0,1-.67.27,3.182,3.182,0,0,1-.93.12,2.676,2.676,0,0,1-1.04-.19,2.034,2.034,0,0,1-.8-0.57,2.8,2.8,0,0,1-.53-0.95,4.449,4.449,0,0,1-.21-1.35h5.4a0.278,0.278,0,0,0,.27-0.11,0.864,0.864,0,0,0,.08-0.45,4.378,4.378,0,0,0-.26-1.55,3.184,3.184,0,0,0-.7-1.14,2.954,2.954,0,0,0-1.06-.71,3.489,3.489,0,0,0-1.35-.25A3.842,3.842,0,0,0,1484.61,7607.23Zm2.48,0.91a1.812,1.812,0,0,1,.65.47,2.1,2.1,0,0,1,.4.72,2.9,2.9,0,0,1,.13.91h-4.41a2.815,2.815,0,0,1,.74-1.66,2.174,2.174,0,0,1,1.62-.6A2.144,2.144,0,0,1,1487.09,7608.14Zm5.71,7.07v-6.01a3.882,3.882,0,0,1,1.01-.83,2.446,2.446,0,0,1,1.18-.31,1.55,1.55,0,0,1,1.29.52,2.2,2.2,0,0,1,.42,1.43v5.2h1.42v-5.2a4.517,4.517,0,0,0-.17-1.26,2.784,2.784,0,0,0-.52-0.98,2.335,2.335,0,0,0-.85-0.63,2.873,2.873,0,0,0-1.17-.22,3.066,3.066,0,0,0-1.51.36,4.653,4.653,0,0,0-1.18.95l-0.11-.88a0.377,0.377,0,0,0-.39-0.3h-0.85v8.16h1.43Zm13.95-10.48a4,4,0,0,0-1.38-.89,4.907,4.907,0,0,0-1.75-.3,4.171,4.171,0,0,0-1.52.26,3.47,3.47,0,0,0-1.11.71,3.046,3.046,0,0,0-.92,2.2,3.271,3.271,0,0,0,.23,1.29,2.752,2.752,0,0,0,.62.86,3.5,3.5,0,0,0,.88.57c0.33,0.14.67,0.27,1.01,0.38s0.68,0.22,1.01.32a4.756,4.756,0,0,1,.88.38,2.093,2.093,0,0,1,.62.56,1.529,1.529,0,0,1,.23.86,2.128,2.128,0,0,1-.16.86,1.827,1.827,0,0,1-.46.67,2.107,2.107,0,0,1-.73.43,3.029,3.029,0,0,1-.99.15,3.094,3.094,0,0,1-1.12-.18,3.54,3.54,0,0,1-.78-0.4,6.137,6.137,0,0,1-.55-0.4,0.623,0.623,0,0,0-.38-0.18,0.361,0.361,0,0,0-.2.06,0.463,0.463,0,0,0-.16.15l-0.45.74a4.779,4.779,0,0,0,1.57,1.1,4.94,4.94,0,0,0,2.03.41,4.6,4.6,0,0,0,1.63-.28,3.6,3.6,0,0,0,1.21-.78,3.3,3.3,0,0,0,.74-1.15,3.975,3.975,0,0,0,.26-1.42,2.717,2.717,0,0,0-.24-1.21,2.352,2.352,0,0,0-.62-0.83,3.471,3.471,0,0,0-.88-0.56c-0.33-.15-0.67-0.28-1.01-0.4s-0.68-.23-1.01-0.34a4.762,4.762,0,0,1-.88-0.39,1.962,1.962,0,0,1-.62-0.55,1.289,1.289,0,0,1-.24-0.8,1.623,1.623,0,0,1,.14-0.7,1.515,1.515,0,0,1,.4-0.57,1.9,1.9,0,0,1,.67-0.38,2.617,2.617,0,0,1,.92-0.14,2.883,2.883,0,0,1,.94.13,3.409,3.409,0,0,1,.66.3,3.308,3.308,0,0,1,.46.31,0.556,0.556,0,0,0,.32.13,0.37,0.37,0,0,0,.21-0.06,0.713,0.713,0,0,0,.15-0.18Zm8.92,2.32h-1.14a0.438,0.438,0,0,0-.25.08,0.456,0.456,0,0,0-.17.22l-2.1,5.13c-0.05.12-.09,0.24-0.13,0.36s-0.08.24-.11,0.36c-0.03-.12-0.06-0.24-0.1-0.36a2.063,2.063,0,0,0-.12-0.35l-2.17-5.14a0.511,0.511,0,0,0-.15-0.21,0.437,0.437,0,0,0-.29-0.09h-1.23l3.34,7.68-1.48,3.24h1.06a0.45,0.45,0,0,0,.33-0.1,0.8,0.8,0,0,0,.18-0.25Zm6.26,0.82a3.564,3.564,0,0,0-1.1-.7,4.1,4.1,0,0,0-1.44-.25,3.873,3.873,0,0,0-1.23.19,2.916,2.916,0,0,0-.9.52,2.2,2.2,0,0,0-.75,1.66,2.018,2.018,0,0,0,.18.89,2.075,2.075,0,0,0,.47.62,3.074,3.074,0,0,0,.68.41,6.585,6.585,0,0,0,.78.29c0.26,0.09.52,0.17,0.77,0.25a4.378,4.378,0,0,1,.68.27,1.554,1.554,0,0,1,.48.38,0.874,0.874,0,0,1,.18.56,1.5,1.5,0,0,1-.1.52,1.149,1.149,0,0,1-.31.42,1.4,1.4,0,0,1-.52.3,2.634,2.634,0,0,1-1.54-.01,2.421,2.421,0,0,1-.56-0.25c-0.15-.09-0.28-0.17-0.39-0.25a0.529,0.529,0,0,0-.3-0.11,0.392,0.392,0,0,0-.23.06,0.463,0.463,0,0,0-.15.16l-0.34.55a4.035,4.035,0,0,0,2.71.99,4.051,4.051,0,0,0,1.31-.2,2.828,2.828,0,0,0,.96-0.56,2.216,2.216,0,0,0,.59-0.83,2.507,2.507,0,0,0,.2-1.04,1.8,1.8,0,0,0-.18-0.84,1.946,1.946,0,0,0-.47-0.59,2.706,2.706,0,0,0-.68-0.4c-0.25-.11-0.5-0.21-0.77-0.3s-0.52-.17-0.77-0.25a4.242,4.242,0,0,1-.67-0.27,1.511,1.511,0,0,1-.48-0.36,0.765,0.765,0,0,1-.18-0.52,1.042,1.042,0,0,1,.42-0.84,1.511,1.511,0,0,1,.49-0.25,1.888,1.888,0,0,1,.65-0.1,2.2,2.2,0,0,1,.72.1,2.94,2.94,0,0,1,.53.2c0.14,0.07.27,0.13,0.37,0.19a0.538,0.538,0,0,0,.27.09,0.34,0.34,0,0,0,.3-0.17Zm5.3-4.2v11.54h1.56v-4.96h4.71v-1.28h-4.71v-4.03h5.51v-1.27h-7.07Zm9.95,3.55a3.6,3.6,0,0,0-1.22.84,3.877,3.877,0,0,0-.77,1.33,5.042,5.042,0,0,0-.28,1.74,4.945,4.945,0,0,0,.28,1.73,3.877,3.877,0,0,0,.77,1.33,3.6,3.6,0,0,0,1.22.84,4.354,4.354,0,0,0,1.61.29,4.263,4.263,0,0,0,1.6-.29,3.412,3.412,0,0,0,1.22-.84,3.723,3.723,0,0,0,.77-1.33,5.192,5.192,0,0,0,.27-1.73,5.3,5.3,0,0,0-.27-1.74,3.723,3.723,0,0,0-.77-1.33,3.412,3.412,0,0,0-1.22-.84,4.075,4.075,0,0,0-1.6-.3A4.161,4.161,0,0,0,1537.18,7607.22Zm0.55,6.77a2,2,0,0,1-.75-0.6,2.5,2.5,0,0,1-.44-0.96,5.1,5.1,0,0,1-.15-1.3,5.216,5.216,0,0,1,.15-1.3,2.621,2.621,0,0,1,.44-0.97,2,2,0,0,1,.75-0.6,2.475,2.475,0,0,1,1.06-.21,2.065,2.065,0,0,1,1.79.81,4.575,4.575,0,0,1,0,4.53,2.065,2.065,0,0,1-1.79.81A2.475,2.475,0,0,1,1537.73,7613.99Zm8.11,1.22v-5.2a3.256,3.256,0,0,1,.83-1.26,1.852,1.852,0,0,1,1.25-.44,2.248,2.248,0,0,1,.65.08,1.3,1.3,0,0,0,.34.08,0.246,0.246,0,0,0,.25-0.2l0.18-1.08a2.03,2.03,0,0,0-.5-0.21,2.323,2.323,0,0,0-.61-0.07,2.265,2.265,0,0,0-1.44.47,3.766,3.766,0,0,0-1.03,1.34l-0.09-1.28a0.524,0.524,0,0,0-.12-0.3,0.453,0.453,0,0,0-.32-0.09h-0.82v8.16h1.43Zm6.45,0v-6.08a3.194,3.194,0,0,1,.83-0.78,1.81,1.81,0,0,1,.98-0.29,1.389,1.389,0,0,1,1.14.49,2.232,2.232,0,0,1,.4,1.46v5.2h1.42v-5.2a2.483,2.483,0,0,1,.14-0.85,1.667,1.667,0,0,1,.38-0.6,1.61,1.61,0,0,1,.56-0.37,1.858,1.858,0,0,1,.67-0.13,1.5,1.5,0,0,1,1.21.5,2.238,2.238,0,0,1,.41,1.45v5.2h1.43v-5.2a4.06,4.06,0,0,0-.19-1.31,2.589,2.589,0,0,0-.53-0.97,2.063,2.063,0,0,0-.85-0.6,2.9,2.9,0,0,0-1.14-.21,3,3,0,0,0-.79.1,2.447,2.447,0,0,0-.73.3,2.6,2.6,0,0,0-.62.53,3.058,3.058,0,0,0-.45.77,2.523,2.523,0,0,0-.73-1.24,1.889,1.889,0,0,0-1.33-.46,2.317,2.317,0,0,0-1.29.36,3.763,3.763,0,0,0-1.01.91l-0.1-.84a0.37,0.37,0,0,0-.39-0.3h-0.85v8.16h1.43Zm17.68-5.22a3.875,3.875,0,0,0-.19-1.26,2.622,2.622,0,0,0-.54-0.97,2.484,2.484,0,0,0-.89-0.63,3.038,3.038,0,0,0-1.21-.22,4.356,4.356,0,0,0-1.72.32,4.612,4.612,0,0,0-1.45.97l0.26,0.46a0.519,0.519,0,0,0,.17.19,0.438,0.438,0,0,0,.25.08,0.633,0.633,0,0,0,.37-0.14c0.13-.08.28-0.18,0.45-0.29a3.582,3.582,0,0,1,.62-0.3,2.5,2.5,0,0,1,.88-0.14,1.48,1.48,0,0,1,1.19.49,2.238,2.238,0,0,1,.41,1.45v0.64a10.9,10.9,0,0,0-2.33.22,5.536,5.536,0,0,0-1.54.57,2.4,2.4,0,0,0-.86.8,1.869,1.869,0,0,0-.26.93,2.366,2.366,0,0,0,.18.97,1.858,1.858,0,0,0,.48.67,1.962,1.962,0,0,0,.72.4,2.861,2.861,0,0,0,.89.14,3.541,3.541,0,0,0,1.56-.32,3.917,3.917,0,0,0,.64-0.39,6.842,6.842,0,0,0,.62-0.52l0.16,0.76a0.341,0.341,0,0,0,.17.27,0.687,0.687,0,0,0,.34.07h0.63v-5.22Zm-4.22,4.27a1.058,1.058,0,0,1-.42-0.22,1.107,1.107,0,0,1-.28-0.38,1.367,1.367,0,0,1-.1-0.56,1.056,1.056,0,0,1,.19-0.62,1.6,1.6,0,0,1,.63-0.47,4.286,4.286,0,0,1,1.12-.33,8.954,8.954,0,0,1,1.68-.13v1.69a4.146,4.146,0,0,1-.5.45,2.508,2.508,0,0,1-1.11.56,2.514,2.514,0,0,1-.69.08A1.722,1.722,0,0,1,1565.75,7614.26Zm9.91,0.88a2.654,2.654,0,0,0,.89-0.54l-0.42-.69a0.247,0.247,0,0,0-.2-0.14,0.206,0.206,0,0,0-.14.07c-0.06.04-.13,0.08-0.21,0.13a1.463,1.463,0,0,1-.28.13,1.142,1.142,0,0,1-.39.06,0.844,0.844,0,0,1-.64-0.25,1.01,1.01,0,0,1-.25-0.76v-4.9h2.32v-1.04h-2.32v-2.81h-0.72a0.311,0.311,0,0,0-.22.08,0.287,0.287,0,0,0-.11.19l-0.33,2.52-1.33.17v0.58a0.287,0.287,0,0,0,.09.23,0.329,0.329,0,0,0,.22.08h0.97v4.99a2.191,2.191,0,0,0,.52,1.56,1.964,1.964,0,0,0,1.48.54A3.029,3.029,0,0,0,1575.66,7615.14Zm2.6-8.09v8.16h1.43v-8.16h-1.43Zm1.66-2.96a0.955,0.955,0,0,0-.22-0.33,1.016,1.016,0,0,0-.32-0.22,0.924,0.924,0,0,0-.4-0.08,0.838,0.838,0,0,0-.38.08,1.016,1.016,0,0,0-.32.22,0.834,0.834,0,0,0-.22.33,0.924,0.924,0,0,0-.08.4,0.853,0.853,0,0,0,.08.39,0.875,0.875,0,0,0,.22.32,1.016,1.016,0,0,0,.32.22,0.838,0.838,0,0,0,.38.08,0.924,0.924,0,0,0,.4-0.08,1.066,1.066,0,0,0,.54-0.54,0.86,0.86,0,0,0,.09-0.39A0.934,0.934,0,0,0,1579.92,7604.09Zm3.96,3.13a3.5,3.5,0,0,0-1.22.84,3.743,3.743,0,0,0-.78,1.33,5.3,5.3,0,0,0-.27,1.74,5.192,5.192,0,0,0,.27,1.73,3.743,3.743,0,0,0,.78,1.33,3.5,3.5,0,0,0,1.22.84,4.586,4.586,0,0,0,3.21,0,3.5,3.5,0,0,0,1.22-.84,3.877,3.877,0,0,0,.77-1.33,5.192,5.192,0,0,0,.27-1.73,5.3,5.3,0,0,0-.27-1.74,3.877,3.877,0,0,0-.77-1.33,3.5,3.5,0,0,0-1.22-.84A4.443,4.443,0,0,0,1583.88,7607.22Zm0.55,6.77a2,2,0,0,1-.75-0.6,2.669,2.669,0,0,1-.45-0.96,5.1,5.1,0,0,1-.15-1.3,5.216,5.216,0,0,1,.15-1.3,2.8,2.8,0,0,1,.45-0.97,2,2,0,0,1,.75-0.6,2.475,2.475,0,0,1,1.06-.21,2.077,2.077,0,0,1,1.79.81,4.643,4.643,0,0,1,0,4.53,2.077,2.077,0,0,1-1.79.81A2.475,2.475,0,0,1,1584.43,7613.99Zm8.1,1.22v-6.01a3.882,3.882,0,0,1,1.01-.83,2.455,2.455,0,0,1,1.19-.31,1.542,1.542,0,0,1,1.28.52,2.2,2.2,0,0,1,.42,1.43v5.2h1.43v-5.2a4.169,4.169,0,0,0-.18-1.26,2.784,2.784,0,0,0-.52-0.98,2.3,2.3,0,0,0-.84-0.63,2.922,2.922,0,0,0-1.18-.22,3.093,3.093,0,0,0-1.51.36,4.834,4.834,0,0,0-1.18.95l-0.11-.88a0.359,0.359,0,0,0-.38-0.3h-0.85v8.16h1.42Z" transform="translate(-1378.06 -7584)"/>
</svg>
