<svg xmlns="http://www.w3.org/2000/svg" xmlns:xlink="http://www.w3.org/1999/xlink" viewBox="0 0 1839.12 1357.18"><defs><style>.cls-1{fill:url(#linear-gradient);}.cls-2{fill:url(#linear-gradient-2);}.cls-3{fill:url(#linear-gradient-3);}.cls-4{fill:url(#linear-gradient-4);}.cls-5{fill:url(#linear-gradient-5);}.cls-6{fill:url(#linear-gradient-6);}.cls-7{fill:url(#linear-gradient-7);}.cls-8{fill:url(#linear-gradient-8);}.cls-9{fill:url(#linear-gradient-9);}.cls-10{fill:url(#linear-gradient-10);}.cls-11{fill:url(#linear-gradient-11);}.cls-12{fill:url(#linear-gradient-12);}.cls-13{fill:url(#linear-gradient-13);}.cls-14{fill:url(#linear-gradient-14);}.cls-15{fill:url(#linear-gradient-15);}.cls-16{fill:url(#linear-gradient-16);}.cls-17{fill:url(#linear-gradient-17);}.cls-18{fill:url(#linear-gradient-18);}.cls-19{fill:url(#linear-gradient-19);}.cls-20{fill:url(#linear-gradient-20);}.cls-21{fill:url(#linear-gradient-21);}.cls-22{fill:url(#linear-gradient-22);}.cls-23{fill:url(#linear-gradient-23);}.cls-24{fill:url(#linear-gradient-24);}.cls-25{fill:url(#linear-gradient-25);}.cls-26{fill:url(#linear-gradient-26);}.cls-27{fill:url(#linear-gradient-27);}.cls-28{fill:url(#linear-gradient-28);}.cls-29{fill:url(#linear-gradient-29);}.cls-30{fill:url(#linear-gradient-30);}.cls-31{fill:url(#linear-gradient-31);}.cls-32{fill:url(#linear-gradient-32);}.cls-33{fill:url(#linear-gradient-33);}.cls-34{fill:url(#linear-gradient-34);}.cls-35{fill:url(#linear-gradient-35);}.cls-36{fill:url(#linear-gradient-36);}.cls-37{fill:url(#linear-gradient-37);}.cls-38{fill:url(#linear-gradient-38);}.cls-39{fill:url(#linear-gradient-39);}.cls-40{fill:url(#linear-gradient-40);}.cls-41{fill:url(#linear-gradient-41);}.cls-42{fill:url(#linear-gradient-42);}.cls-43{fill:url(#linear-gradient-43);}.cls-44{fill:url(#linear-gradient-44);}.cls-45{fill:url(#linear-gradient-45);}.cls-46{fill:url(#linear-gradient-46);}.cls-47{fill:url(#linear-gradient-47);}.cls-48{fill:url(#linear-gradient-48);}.cls-49{fill:url(#linear-gradient-49);}.cls-50{fill:url(#linear-gradient-50);}.cls-51{fill:url(#linear-gradient-51);}.cls-52{fill:url(#linear-gradient-52);}.cls-53{fill:url(#linear-gradient-53);}.cls-54{fill:url(#linear-gradient-54);}.cls-55{fill:url(#linear-gradient-55);}.cls-56{fill:url(#linear-gradient-56);}.cls-57{fill:url(#linear-gradient-57);}.cls-58{fill:url(#linear-gradient-58);}.cls-59{fill:url(#linear-gradient-59);}.cls-60{fill:url(#linear-gradient-60);}.cls-61{fill:url(#linear-gradient-61);}.cls-62{fill:url(#linear-gradient-62);}.cls-63{fill:url(#linear-gradient-63);}.cls-64{fill:url(#linear-gradient-64);}.cls-65{fill:url(#linear-gradient-65);}.cls-66{fill:url(#linear-gradient-66);}.cls-67{fill:url(#linear-gradient-67);}.cls-68{fill:url(#linear-gradient-68);}.cls-69{fill:url(#linear-gradient-69);}.cls-70{fill:url(#linear-gradient-70);}.cls-71{fill:url(#linear-gradient-71);}.cls-72{fill:url(#linear-gradient-72);}.cls-73{fill:url(#linear-gradient-73);}.cls-74{fill:url(#linear-gradient-74);}.cls-75{fill:url(#linear-gradient-75);}.cls-76{fill:url(#linear-gradient-76);}</style><linearGradient id="linear-gradient" x1="1161.2" y1="1036.9" x2="1460.13" y2="1036.9" gradientUnits="userSpaceOnUse"><stop offset="0" stop-color="#7958d8"/><stop offset="1" stop-color="#5c50ca"/></linearGradient><linearGradient id="linear-gradient-2" x1="1018.96" y1="1016.8" x2="1540.52" y2="1016.8" xlink:href="#linear-gradient"/><linearGradient id="linear-gradient-3" x1="932.72" y1="976.54" x2="1620.9" y2="976.54" xlink:href="#linear-gradient"/><linearGradient id="linear-gradient-4" x1="1100.91" y1="676.6" x2="1379.75" y2="676.6" xlink:href="#linear-gradient"/><linearGradient id="linear-gradient-5" x1="828.66" y1="1071.3" x2="1138.59" y2="1071.3" xlink:href="#linear-gradient"/><linearGradient id="linear-gradient-6" x1="1581.24" y1="1164.5" x2="1678.38" y2="1164.5" xlink:href="#linear-gradient"/><linearGradient id="linear-gradient-7" x1="1570.16" y1="800.71" x2="1701.29" y2="800.71" xlink:href="#linear-gradient"/><linearGradient id="linear-gradient-8" x1="1422.45" y1="549.5" x2="1540.47" y2="549.5" xlink:href="#linear-gradient"/><linearGradient id="linear-gradient-9" x1="1362.1" y1="676.25" x2="1781.67" y2="676.25" xlink:href="#linear-gradient"/><linearGradient id="linear-gradient-10" x1="1176.25" y1="493.13" x2="1321.9" y2="493.13" xlink:href="#linear-gradient"/><linearGradient id="linear-gradient-11" x1="708.63" y1="904.84" x2="1156.8" y2="904.84" xlink:href="#linear-gradient"/><linearGradient id="linear-gradient-12" x1="1707.81" y1="596.08" x2="1839.12" y2="596.08" xlink:href="#linear-gradient"/><linearGradient id="linear-gradient-13" x1="1525.05" y1="429.35" x2="1683.83" y2="429.35" xlink:href="#linear-gradient"/><linearGradient id="linear-gradient-14" x1="923.46" y1="648.93" x2="1442.03" y2="648.93" xlink:href="#linear-gradient"/><linearGradient id="linear-gradient-15" x1="1261.81" y1="373.72" x2="1796.64" y2="373.72" xlink:href="#linear-gradient"/><linearGradient id="linear-gradient-16" x1="970.68" y1="413.61" x2="1220.4" y2="413.61" xlink:href="#linear-gradient"/><linearGradient id="linear-gradient-17" x1="1121.01" y1="242.75" x2="1561.01" y2="242.75" xlink:href="#linear-gradient"/><linearGradient id="linear-gradient-18" x1="1604.63" y1="269.09" x2="1701.3" y2="269.09" xlink:href="#linear-gradient"/><linearGradient id="linear-gradient-19" x1="6234.13" y1="1228.91" x2="6533.06" y2="1228.91" gradientTransform="translate(6912.05 1549.19) rotate(180)" xlink:href="#linear-gradient"/><linearGradient id="linear-gradient-20" x1="6091.89" y1="1208.81" x2="6613.45" y2="1208.81" gradientTransform="translate(6912.05 1549.19) rotate(180)" xlink:href="#linear-gradient"/><linearGradient id="linear-gradient-21" x1="6005.65" y1="1168.55" x2="6693.83" y2="1168.55" gradientTransform="translate(6912.05 1549.19) rotate(180)" xlink:href="#linear-gradient"/><linearGradient id="linear-gradient-22" x1="6173.84" y1="868.61" x2="6452.67" y2="868.61" gradientTransform="translate(6912.05 1549.19) rotate(180)" xlink:href="#linear-gradient"/><linearGradient id="linear-gradient-23" x1="5901.59" y1="1263.31" x2="6211.52" y2="1263.31" gradientTransform="translate(6912.05 1549.19) rotate(180)" xlink:href="#linear-gradient"/><linearGradient id="linear-gradient-24" x1="6654.17" y1="1356.51" x2="6751.31" y2="1356.51" gradientTransform="translate(6912.05 1549.19) rotate(180)" xlink:href="#linear-gradient"/><linearGradient id="linear-gradient-25" x1="6643.09" y1="992.72" x2="6774.21" y2="992.72" gradientTransform="translate(6912.05 1549.19) rotate(180)" xlink:href="#linear-gradient"/><linearGradient id="linear-gradient-26" x1="6495.38" y1="741.5" x2="6613.39" y2="741.5" gradientTransform="translate(6912.05 1549.19) rotate(180)" xlink:href="#linear-gradient"/><linearGradient id="linear-gradient-27" x1="6435.03" y1="868.26" x2="6854.6" y2="868.26" gradientTransform="translate(6912.05 1549.19) rotate(180)" xlink:href="#linear-gradient"/><linearGradient id="linear-gradient-28" x1="6249.17" y1="685.13" x2="6394.83" y2="685.13" gradientTransform="translate(6912.05 1549.19) rotate(180)" xlink:href="#linear-gradient"/><linearGradient id="linear-gradient-29" x1="5781.56" y1="1096.85" x2="6229.73" y2="1096.85" gradientTransform="translate(6912.05 1549.19) rotate(180)" xlink:href="#linear-gradient"/><linearGradient id="linear-gradient-30" x1="6780.74" y1="788.09" x2="6912.05" y2="788.09" gradientTransform="translate(6912.05 1549.19) rotate(180)" xlink:href="#linear-gradient"/><linearGradient id="linear-gradient-31" x1="6597.97" y1="621.35" x2="6756.76" y2="621.35" gradientTransform="translate(6912.05 1549.19) rotate(180)" xlink:href="#linear-gradient"/><linearGradient id="linear-gradient-32" x1="5996.39" y1="840.93" x2="6514.96" y2="840.93" gradientTransform="translate(6912.05 1549.19) rotate(180)" xlink:href="#linear-gradient"/><linearGradient id="linear-gradient-33" x1="6334.74" y1="565.73" x2="6869.57" y2="565.73" gradientTransform="translate(6912.05 1549.19) rotate(180)" xlink:href="#linear-gradient"/><linearGradient id="linear-gradient-34" x1="6043.6" y1="605.62" x2="6293.33" y2="605.62" gradientTransform="translate(6912.05 1549.19) rotate(180)" xlink:href="#linear-gradient"/><linearGradient id="linear-gradient-35" x1="6193.94" y1="434.76" x2="6633.94" y2="434.76" gradientTransform="translate(6912.05 1549.19) rotate(180)" xlink:href="#linear-gradient"/><linearGradient id="linear-gradient-36" x1="6677.55" y1="461.09" x2="6774.23" y2="461.09" gradientTransform="translate(6912.05 1549.19) rotate(180)" xlink:href="#linear-gradient"/><linearGradient id="linear-gradient-37" x1="5958.11" y1="999.86" x2="6103.76" y2="999.86" gradientTransform="translate(6934.44 711.22) rotate(167.75)" xlink:href="#linear-gradient"/><linearGradient id="linear-gradient-38" x1="1778.79" y1="104.56" x2="1924.44" y2="104.56" gradientTransform="translate(-821.88 682.29) rotate(-13.28)" xlink:href="#linear-gradient"/><linearGradient id="linear-gradient-39" x1="1310.67" y1="952.62" x2="1310.67" y2="747.2" gradientUnits="userSpaceOnUse"><stop offset="0" stop-color="#5c50ca"/><stop offset="1" stop-color="#5c50ca" stop-opacity="0"/></linearGradient><linearGradient id="linear-gradient-40" x1="1279.74" y1="952.62" x2="1279.74" y2="747.2" xlink:href="#linear-gradient-39"/><linearGradient id="linear-gradient-41" x1="1276.81" y1="952.62" x2="1276.81" y2="747.2" xlink:href="#linear-gradient-39"/><linearGradient id="linear-gradient-42" x1="1240.33" y1="952.62" x2="1240.33" y2="747.2" xlink:href="#linear-gradient-39"/><linearGradient id="linear-gradient-43" x1="983.63" y1="952.62" x2="983.63" y2="747.2" xlink:href="#linear-gradient-39"/><linearGradient id="linear-gradient-44" x1="1629.81" y1="952.62" x2="1629.81" y2="747.2" xlink:href="#linear-gradient-39"/><linearGradient id="linear-gradient-45" x1="1635.72" y1="952.62" x2="1635.72" y2="747.2" xlink:href="#linear-gradient-39"/><linearGradient id="linear-gradient-46" x1="1481.46" y1="952.62" x2="1481.46" y2="747.2" xlink:href="#linear-gradient-39"/><linearGradient id="linear-gradient-47" x1="1571.89" y1="952.62" x2="1571.89" y2="747.2" xlink:href="#linear-gradient-39"/><linearGradient id="linear-gradient-48" x1="1249.07" y1="952.62" x2="1249.07" y2="747.2" xlink:href="#linear-gradient-39"/><linearGradient id="linear-gradient-49" x1="932.72" y1="952.62" x2="932.72" y2="747.2" xlink:href="#linear-gradient-39"/><linearGradient id="linear-gradient-50" x1="1773.46" y1="952.62" x2="1773.46" y2="747.2" xlink:href="#linear-gradient-39"/><linearGradient id="linear-gradient-51" x1="1604.44" y1="952.62" x2="1604.44" y2="747.2" xlink:href="#linear-gradient-39"/><linearGradient id="linear-gradient-52" x1="1182.75" y1="952.62" x2="1182.75" y2="747.2" xlink:href="#linear-gradient-39"/><linearGradient id="linear-gradient-53" x1="1529.23" y1="952.62" x2="1529.23" y2="747.2" xlink:href="#linear-gradient-39"/><linearGradient id="linear-gradient-54" x1="1095.54" y1="952.62" x2="1095.54" y2="747.2" xlink:href="#linear-gradient-39"/><linearGradient id="linear-gradient-55" x1="1341.01" y1="952.62" x2="1341.01" y2="747.2" xlink:href="#linear-gradient-39"/><linearGradient id="linear-gradient-56" x1="1652.96" y1="952.62" x2="1652.96" y2="747.2" xlink:href="#linear-gradient-39"/><linearGradient id="linear-gradient-57" x1="528.45" y1="952.62" x2="528.45" y2="747.2" xlink:href="#linear-gradient-39"/><linearGradient id="linear-gradient-58" x1="559.38" y1="952.62" x2="559.38" y2="747.2" xlink:href="#linear-gradient-39"/><linearGradient id="linear-gradient-59" x1="562.31" y1="952.62" x2="562.31" y2="747.2" xlink:href="#linear-gradient-39"/><linearGradient id="linear-gradient-60" x1="598.79" y1="952.62" x2="598.79" y2="747.2" xlink:href="#linear-gradient-39"/><linearGradient id="linear-gradient-61" x1="855.49" y1="952.62" x2="855.49" y2="747.2" xlink:href="#linear-gradient-39"/><linearGradient id="linear-gradient-62" x1="209.31" y1="952.62" x2="209.31" y2="747.2" xlink:href="#linear-gradient-39"/><linearGradient id="linear-gradient-63" x1="203.4" y1="952.62" x2="203.4" y2="747.2" xlink:href="#linear-gradient-39"/><linearGradient id="linear-gradient-64" x1="357.66" y1="952.62" x2="357.66" y2="747.2" xlink:href="#linear-gradient-39"/><linearGradient id="linear-gradient-65" x1="267.23" y1="952.62" x2="267.23" y2="747.2" xlink:href="#linear-gradient-39"/><linearGradient id="linear-gradient-66" x1="590.05" y1="952.62" x2="590.05" y2="747.2" xlink:href="#linear-gradient-39"/><linearGradient id="linear-gradient-67" x1="906.4" y1="952.62" x2="906.4" y2="747.2" xlink:href="#linear-gradient-39"/><linearGradient id="linear-gradient-68" x1="65.65" y1="952.62" x2="65.65" y2="747.2" xlink:href="#linear-gradient-39"/><linearGradient id="linear-gradient-69" x1="234.68" y1="952.62" x2="234.68" y2="747.2" xlink:href="#linear-gradient-39"/><linearGradient id="linear-gradient-70" x1="656.37" y1="952.62" x2="656.37" y2="747.2" xlink:href="#linear-gradient-39"/><linearGradient id="linear-gradient-71" x1="309.89" y1="952.62" x2="309.89" y2="747.2" xlink:href="#linear-gradient-39"/><linearGradient id="linear-gradient-72" x1="743.58" y1="952.62" x2="743.58" y2="747.2" xlink:href="#linear-gradient-39"/><linearGradient id="linear-gradient-73" x1="498.11" y1="952.62" x2="498.11" y2="747.2" xlink:href="#linear-gradient-39"/><linearGradient id="linear-gradient-74" x1="186.15" y1="952.62" x2="186.15" y2="747.2" xlink:href="#linear-gradient-39"/><linearGradient id="linear-gradient-75" x1="828.66" y1="952.62" x2="828.66" y2="747.2" xlink:href="#linear-gradient-39"/><linearGradient id="linear-gradient-76" x1="1004.22" y1="952.62" x2="1004.22" y2="747.2" xlink:href="#linear-gradient-39"/></defs><title>Fingerprint Swirl 2</title><g id="Layer_2" data-name="Layer 2"><g id="Layer_2-2" data-name="Layer 2"><path class="cls-1" d="M1460.13,898.4V815.84a59,59,0,1,0-118.07,0v74.54a362.41,362.41,0,0,1-93.18,242.83L1166,1225.26a18.84,18.84,0,1,0,28,25.21l82.85-92.06a400.05,400.05,0,0,0,102.85-268V815.84a21.35,21.35,0,0,1,42.7,0V898.4a442.47,442.47,0,0,1-115.3,298.25l-80.76,88.84a18.84,18.84,0,1,0,27.88,25.35L1335,1222A480.08,480.08,0,0,0,1460.13,898.4Z"/><path class="cls-2" d="M1540.52,815.84c0-76.88-62.54-139.42-139.42-139.42S1261.68,739,1261.68,815.84v74.54a282.16,282.16,0,0,1-72.54,189.05L1023.8,1260.65a18.84,18.84,0,1,0,28,25.21l165.34-181.22a319.78,319.78,0,0,0,82.22-214.26V815.84a101.74,101.74,0,1,1,203.47,0V898.4a522.69,522.69,0,0,1-136.21,352.32l-68.14,75a18.84,18.84,0,1,0,27.88,25.35l68.14-75a560.31,560.31,0,0,0,146-377.66Z"/><path class="cls-3" d="M1620.9,815.84c0-121.2-98.6-219.8-219.8-219.8s-219.8,98.6-219.8,219.8v74.54a201.9,201.9,0,0,1-51.91,135.28l-191.83,214a18.84,18.84,0,1,0,28,25.21l191.83-214A239.52,239.52,0,0,0,1219,890.38V815.84c0-100.42,81.7-182.12,182.12-182.12s182.12,81.7,182.12,182.12V898.4a602.91,602.91,0,0,1-157.11,406.39l-18.86,20.74a18.84,18.84,0,1,0,27.88,25.35l18.86-20.74A640.52,640.52,0,0,0,1620.9,898.4V815.84Z"/><path class="cls-4" d="M1100.91,815.84a18.84,18.84,0,1,0,37.68,0,262.95,262.95,0,0,1,225-259.83,18.84,18.84,0,1,0-5.36-37.3,300.63,300.63,0,0,0-257.31,297.13Z"/><path class="cls-5" d="M1138.59,890.38a18.84,18.84,0,1,0-37.68,0,121.63,121.63,0,0,1-31.27,81.5L833.5,1239.62a18.84,18.84,0,0,0,28,25.21l236.14-267.74A159.27,159.27,0,0,0,1138.59,890.38Z"/><path class="cls-6" d="M1664.31,1058.56a18.85,18.85,0,0,0-23,13.46c-7,26.57-48.62,147.73-58.74,173.26a18.84,18.84,0,1,0,35,13.88c10.67-26.94,52.82-149.56,60.16-177.6A18.84,18.84,0,0,0,1664.31,1058.56Z"/><path class="cls-7" d="M1601.6,592.6a18.84,18.84,0,1,0-25.19,28,263,263,0,0,1,87.2,195.22V898.4a690,690,0,0,1-6.42,93.85,18.84,18.84,0,1,0,37.33,5.14,727.85,727.85,0,0,0,6.78-99V815.84A300.69,300.69,0,0,0,1601.6,592.6Z"/><path class="cls-8" d="M1513.52,578.65a18.84,18.84,0,0,0,16.2-34A297.71,297.71,0,0,0,1444,518.71a18.84,18.84,0,0,0-5.36,37.3A260.18,260.18,0,0,1,1513.52,578.65Z"/><path class="cls-9" d="M1401.1,435.27c-7,0-14.18.2-21.19.58a18.84,18.84,0,1,0,2.07,37.62c6.33-.35,12.76-.53,19.12-.53,189.07,0,342.89,153.82,342.89,342.89v82.56a18.84,18.84,0,1,0,37.68,0V815.84C1781.67,606,1610.95,435.27,1401.1,435.27Z"/><path class="cls-10" d="M1195.1,537.49a18.76,18.76,0,0,0,10.74-3.37,340.9,340.9,0,0,1,102.32-48.38,18.84,18.84,0,1,0-10.22-36.27,378.52,378.52,0,0,0-113.61,53.7,18.85,18.85,0,0,0,10.77,34.31Z"/><path class="cls-11" d="M1058.21,890.38V815.84a341.41,341.41,0,0,1,93.46-235A18.84,18.84,0,1,0,1124.25,555a379,379,0,0,0-103.72,260.89v74.54a41.37,41.37,0,0,1-10.64,27.72L713.47,1229.2a18.84,18.84,0,0,0,14,31.45c5.15,0,283.48-287.4,287.2-291.53l23.23-25.81A79,79,0,0,0,1058.21,890.38Z"/><path class="cls-12" d="M1838.13,669.15a458.41,458.41,0,0,0-97.61-164.89,18.84,18.84,0,1,0-27.75,25.49,421,421,0,0,1,89.64,151.42,18.84,18.84,0,0,0,35.71-12Z"/><path class="cls-13" d="M1550,379.56a18.84,18.84,0,1,0-12.2,35.65,422,422,0,0,1,115.93,61.22,18.84,18.84,0,0,0,22.54-30.2A459.75,459.75,0,0,0,1550,379.56Z"/><path class="cls-14" d="M1067,529.46a421.16,421.16,0,0,1,292.74-117.83A427.2,427.2,0,0,1,1420.5,416a18.84,18.84,0,0,0,5.39-37.29,465.14,465.14,0,0,0-66.17-4.74c-119.29,0-232.51,45.57-318.81,128.32-86,82.49-112.1,283.44-117.42,402a18.84,18.84,0,0,0,18,19.67l.86,0a18.84,18.84,0,0,0,18.81-18C966,797.11,988,605.22,1067,529.46Z"/><path class="cls-15" d="M1401.1,274.5A542.14,542.14,0,0,0,1276.32,289a18.84,18.84,0,1,0,8.68,36.66,504.69,504.69,0,0,1,116.1-13.5c138.15,0,267.11,55,363.11,155a18.84,18.84,0,1,0,27.18-26.1A539.88,539.88,0,0,0,1401.1,274.5Z"/><path class="cls-16" d="M977.9,509.13a18.84,18.84,0,0,0,26.45-3.22,506.92,506.92,0,0,1,204.42-155.57,18.84,18.84,0,0,0-14.43-34.81A544.68,544.68,0,0,0,974.68,482.68,18.84,18.84,0,0,0,977.9,509.13Z"/><path class="cls-17" d="M1139.87,291.39a18.73,18.73,0,0,0,8.18-1.88,577.31,577.31,0,0,1,253.06-57.72,584.76,584.76,0,0,1,136.66,16.14,18.84,18.84,0,1,0,8.81-36.64,622.47,622.47,0,0,0-145.47-17.19,614.68,614.68,0,0,0-269.44,61.47,18.84,18.84,0,0,0,8.2,35.81Z"/><path class="cls-18" d="M1616.5,272.95a583.58,583.58,0,0,1,57.14,26.43,18.84,18.84,0,0,0,17.64-33.29,621.6,621.6,0,0,0-60.84-28.14,18.84,18.84,0,1,0-13.94,35Z"/><path class="cls-19" d="M379,458.79v82.56a59,59,0,1,0,118.07,0V466.81A362.41,362.41,0,0,1,590.23,224l82.85-92.06a18.84,18.84,0,1,0-28-25.21l-82.85,92.06a400.05,400.05,0,0,0-102.85,268v74.54a21.35,21.35,0,1,1-42.7,0V458.79A442.47,442.47,0,0,1,532,160.54l80.76-88.84a18.84,18.84,0,1,0-27.88-25.35l-80.76,88.84A480.08,480.08,0,0,0,379,458.79Z"/><path class="cls-20" d="M298.6,541.34c0,76.88,62.54,139.42,139.42,139.42s139.42-62.54,139.42-139.42V466.81A282.16,282.16,0,0,1,650,277.76L815.32,96.53a18.84,18.84,0,1,0-28-25.21L622,252.55a319.78,319.78,0,0,0-82.22,214.26v74.54a101.74,101.74,0,1,1-203.47,0V458.79A522.69,522.69,0,0,1,472.49,106.47l68.14-75A18.84,18.84,0,1,0,512.75,6.17l-68.14,75a560.31,560.31,0,0,0-146,377.66Z"/><path class="cls-21" d="M218.22,541.34c0,121.2,98.6,219.8,219.8,219.8s219.8-98.6,219.8-219.8V466.81a201.9,201.9,0,0,1,51.91-135.28l191.83-214a18.84,18.84,0,1,0-28-25.21l-191.83,214a239.52,239.52,0,0,0-61.58,160.48v74.54c0,100.42-81.7,182.12-182.12,182.12S255.9,641.77,255.9,541.34V458.79A602.91,602.91,0,0,1,413,52.4l18.86-20.74A18.84,18.84,0,1,0,404,6.31L385.13,27.05A640.52,640.52,0,0,0,218.22,458.79v82.56Z"/><path class="cls-22" d="M738.21,541.34a18.84,18.84,0,0,0-37.68,0,262.95,262.95,0,0,1-225,259.83,18.84,18.84,0,0,0,5.36,37.3A300.63,300.63,0,0,0,738.21,541.34Z"/><path class="cls-23" d="M700.53,466.81a18.84,18.84,0,1,0,37.68,0,121.63,121.63,0,0,1,31.27-81.5l236.14-267.74a18.84,18.84,0,0,0-28-25.21L741.47,360.1A159.27,159.27,0,0,0,700.53,466.81Z"/><path class="cls-24" d="M174.81,298.62a18.85,18.85,0,0,0,23-13.46c7-26.57,48.62-147.73,58.74-173.26a18.84,18.84,0,1,0-35-13.88c-10.67,26.94-52.82,149.56-60.16,177.6A18.84,18.84,0,0,0,174.81,298.62Z"/><path class="cls-25" d="M237.52,764.58a18.84,18.84,0,1,0,25.19-28,263,263,0,0,1-87.2-195.22V458.79a690,690,0,0,1,6.42-93.85,18.84,18.84,0,1,0-37.33-5.14,727.85,727.85,0,0,0-6.78,99v82.55A300.69,300.69,0,0,0,237.52,764.58Z"/><path class="cls-26" d="M325.6,778.54a18.84,18.84,0,0,0-16.2,34,297.71,297.71,0,0,0,85.75,25.92,18.84,18.84,0,1,0,5.36-37.3A260.18,260.18,0,0,1,325.6,778.54Z"/><path class="cls-27" d="M438,921.91c7,0,14.18-.2,21.19-.58a18.84,18.84,0,1,0-2.07-37.62c-6.33.35-12.76.53-19.12.53C249,884.24,95.13,730.42,95.13,541.34V458.79a18.84,18.84,0,1,0-37.68,0v82.55C57.45,751.19,228.17,921.91,438,921.91Z"/><path class="cls-28" d="M644,819.69a18.76,18.76,0,0,0-10.74,3.37A340.9,340.9,0,0,1,531,871.44a18.84,18.84,0,1,0,10.22,36.27A378.52,378.52,0,0,0,654.79,854,18.85,18.85,0,0,0,644,819.69Z"/><path class="cls-29" d="M780.91,466.81v74.54a341.41,341.41,0,0,1-93.46,235,18.84,18.84,0,1,0,27.42,25.85A379,379,0,0,0,818.59,541.34V466.81a41.37,41.37,0,0,1,10.64-27.72L1125.65,128a18.84,18.84,0,0,0-14-31.45c-5.15,0-283.48,287.4-287.2,291.53l-23.23,25.81A79,79,0,0,0,780.91,466.81Z"/><path class="cls-30" d="M1,688A458.41,458.41,0,0,0,98.6,852.93a18.84,18.84,0,1,0,27.75-25.49A421,421,0,0,1,36.7,676,18.84,18.84,0,0,0,1,688Z"/><path class="cls-31" d="M289.13,977.63A18.84,18.84,0,1,0,301.33,942,422,422,0,0,1,185.4,880.76,18.84,18.84,0,0,0,162.86,911,459.75,459.75,0,0,0,289.13,977.63Z"/><path class="cls-32" d="M772.14,827.72A421.16,421.16,0,0,1,479.4,945.56a427.2,427.2,0,0,1-60.78-4.35,18.84,18.84,0,0,0-5.39,37.29,465.14,465.14,0,0,0,66.17,4.74c119.29,0,232.51-45.57,318.81-128.32,86-82.49,112.1-283.44,117.42-402a18.84,18.84,0,0,0-18-19.67l-.86,0a18.84,18.84,0,0,0-18.81,18C873.11,560.07,851.15,752,772.14,827.72Z"/><path class="cls-33" d="M438,1082.68a542.14,542.14,0,0,0,124.78-14.51,18.84,18.84,0,1,0-8.68-36.66A504.69,504.69,0,0,1,438,1045c-138.15,0-267.11-55-363.11-155a18.84,18.84,0,1,0-27.18,26.1A539.88,539.88,0,0,0,438,1082.68Z"/><path class="cls-34" d="M861.22,848.05a18.84,18.84,0,0,0-26.45,3.22,506.92,506.92,0,0,1-204.42,155.57,18.84,18.84,0,0,0,14.43,34.81A544.68,544.68,0,0,0,864.44,874.5,18.84,18.84,0,0,0,861.22,848.05Z"/><path class="cls-35" d="M699.25,1065.79a18.73,18.73,0,0,0-8.18,1.88A577.31,577.31,0,0,1,438,1125.39a584.76,584.76,0,0,1-136.66-16.14,18.84,18.84,0,1,0-8.81,36.64A622.47,622.47,0,0,0,438,1163.07a614.68,614.68,0,0,0,269.44-61.47,18.84,18.84,0,0,0-8.2-35.81Z"/><path class="cls-36" d="M222.62,1084.23a583.58,583.58,0,0,1-57.14-26.43,18.84,18.84,0,0,0-17.64,33.29,621.6,621.6,0,0,0,60.84,28.14,18.84,18.84,0,1,0,13.94-35Z"/><path class="cls-37" d="M872,958.85a18.76,18.76,0,0,0-9.78,5.58,340.9,340.9,0,0,1-89.73,69,18.84,18.84,0,1,0,17.69,33.27A378.52,378.52,0,0,0,889.8,990.1,18.85,18.85,0,0,0,872,958.85Z"/><path class="cls-38" d="M961.89,414.19a18.76,18.76,0,0,0,9.68-5.75A340.9,340.9,0,0,1,1060,337.85a18.84,18.84,0,1,0-18.28-32.95,378.52,378.52,0,0,0-98.23,78.37,18.85,18.85,0,0,0,18.37,30.92Z"/><path class="cls-39" d="M1460.13,898.4V815.84a59,59,0,0,0-118.07,0v74.54a362.41,362.41,0,0,1-93.18,242.83L1166,1225.26a18.84,18.84,0,1,0,28,25.21l82.85-92.06a400.05,400.05,0,0,0,102.85-268V815.84a21.35,21.35,0,0,1,42.7,0V898.4a442.47,442.47,0,0,1-115.3,298.25l-80.76,88.84a18.84,18.84,0,1,0,27.88,25.35L1335,1222A480.08,480.08,0,0,0,1460.13,898.4Z"/><path class="cls-40" d="M1540.52,815.84c0-76.88-62.54-139.42-139.42-139.42S1261.68,739,1261.68,815.84v74.54a282.16,282.16,0,0,1-72.54,189.05L1023.8,1260.65a18.84,18.84,0,1,0,28,25.21l165.34-181.22a319.78,319.78,0,0,0,82.22-214.26V815.84a101.74,101.74,0,0,1,203.47,0V898.4a522.69,522.69,0,0,1-136.21,352.32l-68.14,75a18.84,18.84,0,1,0,27.88,25.35l68.14-75a560.31,560.31,0,0,0,146-377.66Z"/><path class="cls-41" d="M1620.9,815.84h0c0-121.2-98.6-219.8-219.8-219.8s-219.8,98.6-219.8,219.8v74.54a201.9,201.9,0,0,1-51.91,135.28l-191.83,214a18.84,18.84,0,1,0,28,25.21l191.83-214A239.52,239.52,0,0,0,1219,890.38V815.84c0-100.42,81.7-182.12,182.12-182.12s182.12,81.7,182.12,182.12V898.4a602.91,602.91,0,0,1-157.11,406.39l-18.86,20.74a18.84,18.84,0,1,0,27.88,25.35l18.86-20.74A640.52,640.52,0,0,0,1620.9,898.4Z"/><path class="cls-42" d="M1100.91,815.84a18.84,18.84,0,1,0,37.68,0,262.95,262.95,0,0,1,225-259.83,18.84,18.84,0,0,0-5.36-37.3,300.63,300.63,0,0,0-257.31,297.13Z"/><path class="cls-43" d="M1138.59,890.38a18.84,18.84,0,0,0-37.68,0,121.63,121.63,0,0,1-31.27,81.5L833.5,1239.62a18.84,18.84,0,0,0,28,25.21l236.14-267.74A159.27,159.27,0,0,0,1138.59,890.38Z"/><path class="cls-44" d="M1664.31,1058.56a18.85,18.85,0,0,0-23,13.46c-7,26.57-48.62,147.73-58.74,173.26a18.84,18.84,0,1,0,35,13.88c10.67-26.94,52.82-149.56,60.16-177.6A18.84,18.84,0,0,0,1664.31,1058.56Z"/><path class="cls-45" d="M1601.6,592.6a18.84,18.84,0,1,0-25.19,28,263,263,0,0,1,87.2,195.22V898.4a690,690,0,0,1-6.42,93.85,18.84,18.84,0,1,0,37.33,5.14,727.85,727.85,0,0,0,6.78-99V815.84A300.69,300.69,0,0,0,1601.6,592.6Z"/><path class="cls-46" d="M1513.52,578.65a18.84,18.84,0,0,0,16.2-34A297.71,297.71,0,0,0,1444,518.71a18.84,18.84,0,1,0-5.36,37.3A260.18,260.18,0,0,1,1513.52,578.65Z"/><path class="cls-47" d="M1401.1,435.27c-7,0-14.18.2-21.19.58a18.84,18.84,0,1,0,2.07,37.62c6.33-.35,12.76-.53,19.12-.53,189.07,0,342.89,153.82,342.89,342.89v82.56a18.84,18.84,0,0,0,37.68,0V815.84C1781.67,606,1610.95,435.27,1401.1,435.27Z"/><path class="cls-48" d="M1195.1,537.49a18.76,18.76,0,0,0,10.74-3.37,340.9,340.9,0,0,1,102.32-48.38,18.84,18.84,0,1,0-10.22-36.27,378.52,378.52,0,0,0-113.61,53.7,18.85,18.85,0,0,0,10.77,34.31Z"/><path class="cls-49" d="M1037.9,943.31a79,79,0,0,0,20.31-52.93V815.84a341.41,341.41,0,0,1,93.46-235A18.84,18.84,0,1,0,1124.25,555a379,379,0,0,0-103.72,260.89v74.54a41.37,41.37,0,0,1-10.64,27.72L713.47,1229.2a18.84,18.84,0,0,0,14,31.45c5.15,0,283.48-287.4,287.2-291.53Z"/><path class="cls-50" d="M1838.13,669.15a458.41,458.41,0,0,0-97.61-164.89,18.84,18.84,0,1,0-27.75,25.49,421,421,0,0,1,89.64,151.42,18.84,18.84,0,0,0,35.71-12Z"/><path class="cls-51" d="M1550,379.56a18.84,18.84,0,1,0-12.2,35.65,422,422,0,0,1,115.93,61.22,18.84,18.84,0,0,0,22.54-30.2A459.75,459.75,0,0,0,1550,379.56Z"/><path class="cls-52" d="M1441.84,400a18.84,18.84,0,0,0-16-21.34,465.14,465.14,0,0,0-66.17-4.74c-119.29,0-232.51,45.57-318.81,128.32-86,82.49-112.1,283.44-117.42,402a18.84,18.84,0,0,0,18,19.67l.86,0a18.84,18.84,0,0,0,18.81-18C966,797.11,988,605.22,1067,529.46a421.16,421.16,0,0,1,292.74-117.83A427.2,427.2,0,0,1,1420.5,416,18.83,18.83,0,0,0,1441.84,400Z"/><path class="cls-53" d="M1401.1,274.5A542.14,542.14,0,0,0,1276.32,289a18.84,18.84,0,1,0,8.68,36.66,504.69,504.69,0,0,1,116.1-13.5c138.15,0,267.11,55,363.11,155a18.84,18.84,0,1,0,27.18-26.1A539.88,539.88,0,0,0,1401.1,274.5Z"/><path class="cls-54" d="M974.68,482.68a18.84,18.84,0,1,0,29.67,23.23,506.92,506.92,0,0,1,204.42-155.58,18.84,18.84,0,0,0-14.43-34.81A544.68,544.68,0,0,0,974.68,482.68Z"/><path class="cls-55" d="M1122.89,280.74a18.82,18.82,0,0,0,25.16,8.77,577.31,577.31,0,0,1,253.06-57.72,584.76,584.76,0,0,1,136.66,16.14,18.84,18.84,0,1,0,8.81-36.64,622.47,622.47,0,0,0-145.47-17.19,614.68,614.68,0,0,0-269.44,61.47A18.84,18.84,0,0,0,1122.89,280.74Z"/><path class="cls-56" d="M1616.5,272.95a583.59,583.59,0,0,1,57.14,26.43,18.84,18.84,0,0,0,17.64-33.29,621.6,621.6,0,0,0-60.84-28.14,18.84,18.84,0,1,0-13.94,35Z"/><path class="cls-57" d="M379,458.79v82.56a59,59,0,0,0,118.07,0V466.81A362.41,362.41,0,0,1,590.23,224l82.85-92.06a18.84,18.84,0,1,0-28-25.21l-82.85,92.06a400.05,400.05,0,0,0-102.85,268v74.54a21.35,21.35,0,0,1-42.7,0V458.79A442.47,442.47,0,0,1,532,160.54l80.76-88.84a18.84,18.84,0,1,0-27.88-25.35l-80.76,88.84A480.08,480.08,0,0,0,379,458.79Z"/><path class="cls-58" d="M298.6,541.34c0,76.88,62.54,139.42,139.42,139.42s139.42-62.54,139.42-139.42V466.81A282.16,282.16,0,0,1,650,277.76L815.32,96.53a18.84,18.84,0,1,0-28-25.21L622,252.55a319.78,319.78,0,0,0-82.22,214.26v74.54a101.74,101.74,0,1,1-203.47,0V458.79A522.69,522.69,0,0,1,472.49,106.47l68.14-75A18.84,18.84,0,1,0,512.75,6.17l-68.14,75a560.31,560.31,0,0,0-146,377.66Z"/><path class="cls-59" d="M218.22,541.34h0c0,121.2,98.6,219.8,219.8,219.8s219.8-98.6,219.8-219.8V466.81a201.9,201.9,0,0,1,51.91-135.28l191.83-214a18.84,18.84,0,1,0-28-25.21l-191.83,214a239.52,239.52,0,0,0-61.58,160.48v74.54c0,100.42-81.7,182.12-182.12,182.12S255.9,641.77,255.9,541.34V458.79A602.91,602.91,0,0,1,413,52.4l18.86-20.74A18.84,18.84,0,1,0,404,6.31L385.13,27.05A640.52,640.52,0,0,0,218.22,458.79Z"/><path class="cls-60" d="M738.21,541.34a18.84,18.84,0,1,0-37.68,0,262.95,262.95,0,0,1-225,259.83,18.84,18.84,0,1,0,5.36,37.3A300.63,300.63,0,0,0,738.21,541.34Z"/><path class="cls-61" d="M700.53,466.81a18.84,18.84,0,1,0,37.68,0,121.63,121.63,0,0,1,31.27-81.5l236.14-267.74a18.84,18.84,0,0,0-28-25.21L741.47,360.1A159.27,159.27,0,0,0,700.53,466.81Z"/><path class="cls-62" d="M174.81,298.62a18.85,18.85,0,0,0,23-13.46c7-26.57,48.62-147.73,58.74-173.26a18.84,18.84,0,1,0-35-13.88c-10.67,26.94-52.82,149.56-60.16,177.6A18.84,18.84,0,0,0,174.81,298.62Z"/><path class="cls-63" d="M237.52,764.58a18.84,18.84,0,1,0,25.19-28,263,263,0,0,1-87.2-195.22V458.79a690,690,0,0,1,6.42-93.85,18.84,18.84,0,1,0-37.33-5.14,727.86,727.86,0,0,0-6.78,99v82.55A300.69,300.69,0,0,0,237.52,764.58Z"/><path class="cls-64" d="M325.6,778.54a18.84,18.84,0,0,0-16.2,34,297.71,297.71,0,0,0,85.75,25.92,18.84,18.84,0,0,0,5.36-37.3A260.18,260.18,0,0,1,325.6,778.54Z"/><path class="cls-65" d="M438,921.91c7,0,14.18-.2,21.19-.58a18.84,18.84,0,1,0-2.07-37.62c-6.33.35-12.76.53-19.12.53C249,884.24,95.13,730.42,95.13,541.34V458.79a18.84,18.84,0,1,0-37.68,0v82.55C57.45,751.19,228.17,921.91,438,921.91Z"/><path class="cls-66" d="M644,819.69a18.76,18.76,0,0,0-10.74,3.37A340.9,340.9,0,0,1,531,871.44a18.84,18.84,0,0,0,10.22,36.27A378.52,378.52,0,0,0,654.79,854,18.85,18.85,0,0,0,644,819.69Z"/><path class="cls-67" d="M801.22,413.87a79,79,0,0,0-20.31,52.93v74.54a341.41,341.41,0,0,1-93.46,235,18.84,18.84,0,0,0,27.42,25.85A379,379,0,0,0,818.59,541.34V466.81a41.37,41.37,0,0,1,10.64-27.72L1125.65,128a18.84,18.84,0,0,0-14-31.45c-5.15,0-283.48,287.4-287.2,291.53Z"/><path class="cls-68" d="M125.22,854.06a18.84,18.84,0,0,0,1.13-26.62A421,421,0,0,1,36.7,676,18.84,18.84,0,0,0,1,688,458.41,458.41,0,0,0,98.6,852.93,18.84,18.84,0,0,0,125.22,854.06Z"/><path class="cls-69" d="M185.4,880.76A18.84,18.84,0,0,0,162.86,911a459.75,459.75,0,0,0,126.27,66.66A18.84,18.84,0,1,0,301.33,942,422,422,0,0,1,185.4,880.76Z"/><path class="cls-70" d="M897.67,433.3l-.86,0a18.84,18.84,0,0,0-18.81,18C873.11,560.07,851.15,752,772.14,827.72A421.16,421.16,0,0,1,479.4,945.56a427.2,427.2,0,0,1-60.78-4.35,18.84,18.84,0,0,0-5.39,37.29,465.14,465.14,0,0,0,66.17,4.74c119.29,0,232.51-45.57,318.81-128.32,86-82.49,112.1-283.44,117.42-402A18.84,18.84,0,0,0,897.67,433.3Z"/><path class="cls-71" d="M438,1082.68a542.14,542.14,0,0,0,124.78-14.51,18.84,18.84,0,1,0-8.68-36.66A504.69,504.69,0,0,1,438,1045c-138.15,0-267.11-55-363.11-155a18.84,18.84,0,1,0-27.18,26.1A539.88,539.88,0,0,0,438,1082.68Z"/><path class="cls-72" d="M864.44,874.5a18.84,18.84,0,1,0-29.67-23.23,506.92,506.92,0,0,1-204.42,155.58,18.84,18.84,0,1,0,14.43,34.81A544.68,544.68,0,0,0,864.44,874.5Z"/><path class="cls-73" d="M716.23,1076.44a18.82,18.82,0,0,0-25.16-8.77A577.31,577.31,0,0,1,438,1125.39a584.76,584.76,0,0,1-136.66-16.14,18.84,18.84,0,1,0-8.81,36.64A622.47,622.47,0,0,0,438,1163.07a614.68,614.68,0,0,0,269.44-61.47A18.84,18.84,0,0,0,716.23,1076.44Z"/><path class="cls-74" d="M222.62,1084.23a583.57,583.57,0,0,1-57.14-26.43,18.84,18.84,0,0,0-17.64,33.29,621.6,621.6,0,0,0,60.84,28.14,18.84,18.84,0,1,0,13.94-35Z"/><path class="cls-75" d="M790.17,1066.69A378.52,378.52,0,0,0,889.8,990.1a18.84,18.84,0,1,0-27.59-25.67,340.9,340.9,0,0,1-89.73,69,18.84,18.84,0,1,0,17.69,33.27Z"/><path class="cls-76" d="M1041.75,304.9a378.52,378.52,0,0,0-98.23,78.37,18.84,18.84,0,1,0,28,25.17A340.9,340.9,0,0,1,1060,337.85a18.84,18.84,0,0,0-18.28-32.95Z"/></g></g></svg>