<svg width="300" height="400" xmlns="http://www.w3.org/2000/svg">
 <style type="text/css">.st0{fill:#FFFFFF;}</style>

 <g>
  <title>background</title>
  <rect fill="none" id="canvas_background" height="402" width="302" y="-1" x="-1"/>
 </g>
 <g>
  <title>Layer 1</title>
  <path stroke="null" id="svg_1" d="m248.382261,299.218693c0,-1.167742 -1.167742,-2.335484 -2.335484,-2.335484c0,0 0,0 0,0c0,0 0,0 0,0c0,0 0,0 0,0c0,0 0,0 0,0c-0.583871,0 0,0 -0.583871,0c0,0 -0.583871,0 -0.583871,0c-4.087097,0 -7.006452,0.583871 -9.925807,1.751613c-3.503226,1.167742 -7.006452,3.503226 -9.925807,6.422581l0,-5.254839c0,0 0,0 0,0c0,-1.167742 -1.167742,-2.335484 -2.335484,-2.335484c0,0 0,0 0,0l-9.341936,0c0,0 0,0 0,0c-1.167742,0 -2.335484,1.167742 -2.335484,2.335484l0,0l0,64.225808c0,1.167742 1.167742,2.335484 2.335484,2.335484l9.341936,0c1.167742,0 2.335484,-1.167742 2.335484,-2.335484l0,-33.280646c0,-7.006452 1.751613,-11.093549 5.83871,-14.596775c3.503226,-2.919355 8.758065,-6.422581 15.180646,-7.006452c0,0 0,0 0,0c1.167742,0 2.335484,-1.167742 2.335484,-2.335484l0,-7.590323l0,0zm-119.109681,4.087097c-5.83871,-4.670968 -14.012904,-6.422581 -23.93871,-6.422581l-19.267742,0c-1.167742,0 -2.335484,1.167742 -2.335484,2.335484l0,14.012904l0,72.983873c0,1.167742 1.167742,2.335484 2.335484,2.335484l9.341936,0c1.167742,0 2.335484,-1.167742 2.335484,-2.335484c0,0 0,0 0,0l0,-18.683871c0,-1.167742 1.167742,-2.335484 2.335484,-2.335484l5.254839,0c9.925807,0 17.516129,-2.335484 23.93871,-7.006452c6.422581,-4.670968 9.341936,-11.67742 9.341936,-20.435484l0,-14.012904c0,-8.174194 -2.919355,-15.180646 -9.341936,-20.435484zm-4.670968,35.032259c0,4.670968 -1.751613,8.174194 -4.670968,10.509678c-2.919355,2.335484 -8.174194,3.503226 -14.012904,3.503226l-4.670968,0c-1.167742,0 -2.335484,-1.167742 -2.335484,-2.335484l0,-23.354839l0,-14.012904c0,-1.167742 1.167742,-2.335484 2.335484,-2.335484l4.670968,0c6.422581,0 11.093549,1.167742 14.012904,3.503226c2.919355,2.335484 4.670968,5.83871 4.670968,10.509678l0,14.012904zm129.035487,9.341936c0,6.422581 1.167742,11.67742 4.087097,14.596775c2.919355,2.919355 7.006452,4.670968 12.845162,4.670968l11.67742,0c1.167742,0 2.335484,-1.167742 2.335484,-2.335484c0,0 0,0 0,0l0,-8.174194c0,0 0,0 0,0c0,-1.167742 -1.167742,-2.335484 -2.335484,-2.335484c0,0 0,0 0,0l-11.093549,0c-1.751613,0 -2.335484,-0.583871 -2.919355,-1.167742c-0.583871,-0.583871 -0.583871,-1.751613 -0.583871,-3.503226l0,-36.783872c0,-1.167742 1.167742,-2.335484 2.335484,-2.335484l13.429033,0c0,0 0,0 0,0c1.167742,0 2.335484,-1.167742 2.335484,-2.335484l0,-8.174194c0,-1.167742 -1.167742,-2.335484 -2.335484,-2.335484l0,0l-13.429033,0c-1.167742,0 -2.335484,-1.167742 -2.335484,-2.335484l0,-18.683871c0,0 0,0 0,0c0,-1.167742 -1.167742,-2.335484 -2.335484,-2.335484l-9.341936,0c-1.167742,0 -2.335484,1.167742 -2.335484,2.335484c0,0 0,0 0,0l0,71.23226zm-79.990325,19.267742c-16.932259,0 -30.945162,-14.012904 -30.945162,-30.945162l0,-9.925807c0,-16.932259 14.012904,-30.945162 30.945162,-30.945162c16.932259,0 30.945162,14.012904 30.945162,30.945162l0,9.925807c0,16.932259 -14.012904,30.945162 -30.945162,30.945162zm0,-57.219356c-8.758065,0 -16.348388,7.590323 -16.348388,16.348388l0,9.925807c0,8.758065 7.590323,16.348388 16.348388,16.348388c8.758065,0 16.348388,-7.590323 16.348388,-16.348388l0,-9.925807c0,-8.758065 -7.590323,-16.348388 -16.348388,-16.348388zm-158.229036,-10.509678c0,-1.167742 1.167742,-2.335484 2.335484,-2.335484l9.341936,0c1.167742,0 2.335484,1.167742 2.335484,2.335484l0,36.783872c0,8.758065 7.590323,16.348388 16.348388,16.348388c8.758065,0 16.348388,-7.590323 16.348388,-16.348388l0,-36.783872c0,-1.167742 1.167742,-2.335484 2.335484,-2.335484l9.341936,0c1.167742,0 2.335484,1.167742 2.335484,2.335484l0,36.783872c0,16.932259 -14.012904,30.945162 -30.945162,30.945162c-16.932259,0 -30.945162,-14.012904 -30.945162,-30.945162l0,-36.783872l1.167742,0zm268.580652,-94.587099l-124.364519,-189.75807c-4.087097,-5.83871 -14.012904,-5.83871 -17.516129,0l-124.94839,189.75807c-1.751613,2.919355 -2.335484,6.422581 -1.167742,9.925807c1.167742,2.919355 4.087097,5.83871 7.006452,6.422581l124.364519,46.709679c1.167742,0 1.751613,0.583871 2.919355,0.583871c1.167742,0 1.751613,0 2.919355,-0.583871l124.364519,-46.709679c3.503226,-0.583871 5.83871,-3.503226 7.006452,-6.422581c1.751613,-3.503226 1.167742,-7.006452 -0.583871,-9.925807zm-133.706455,-106.264519c23.354839,0 42.038711,18.683871 42.038711,42.038711c0,23.354839 -18.683871,42.038711 -42.038711,42.038711c-23.354839,0 -42.038711,-18.683871 -42.038711,-42.038711c0,-23.354839 19.267742,-42.038711 42.038711,-42.038711zm0,127.283874c-42.038711,0 -86.412906,-12.261291 -86.412906,-34.448388c0,-13.429033 15.764517,-23.354839 37.951614,-29.193549c1.167742,2.919355 2.919355,6.422581 5.254839,9.341936c-21.603226,5.254839 -33.280646,13.429033 -33.280646,19.851613c0,2.919355 2.335484,6.422581 7.006452,9.341936c0,-0.583871 0.583871,-1.751613 1.167742,-2.335484c4.670968,-5.83871 18.683871,-11.093549 39.119356,-13.429033c8.174194,5.83871 18.683871,8.758065 29.193549,8.758065c11.093549,0 21.019355,-3.503226 29.193549,-8.758065c19.851613,2.335484 33.864517,7.590323 39.119356,13.429033c0.583871,0.583871 1.167742,1.751613 1.167742,2.335484c4.670968,-2.919355 7.006452,-6.422581 7.006452,-9.341936c0,-6.422581 -12.261291,-14.596775 -33.280646,-19.851613c1.751613,-2.919355 3.503226,-5.83871 5.254839,-9.341936c21.603226,5.83871 37.951614,15.180646 37.951614,29.193549c0,22.187097 -44.374195,34.448388 -86.412906,34.448388z" class="st0"/>
 </g>
</svg>