<svg xmlns="http://www.w3.org/2000/svg" viewBox="0 0 48 48"><defs><style>.cls-1{fill:#fff;}.cls-2{fill:#5c50ca;}</style></defs><title>Medium Icon</title><g id="Layer_2" data-name="Layer 2"><g id="Icons"><rect class="cls-1" width="48" height="48" rx="12" ry="12"/><path class="cls-2" d="M19.3,34.22l-2.8-3.39a1.4,1.4,0,0,1-.38-1.17V19.48l7,15.19h.81l6-15.19V31.59c0,.32,0,.38-.21.59l-2.15,2.09v.45H38v-.45l-2.08-2a.62.62,0,0,1-.23-.59v-15a.62.62,0,0,1,.23-.6L38,14v-.45H30.64L25.39,26.66l-6-13.09H11.7V14l2.49,3a1,1,0,0,1,.33.87V29.66a1.34,1.34,0,0,1-.36,1.17l-2.79,3.39v.45H19.3Z"/></g></g></svg>