<?xml version="1.0" encoding="UTF-8"?>
<svg width="1440px" height="1217px" viewBox="0 0 1440 1217" version="1.1" xmlns="http://www.w3.org/2000/svg" xmlns:xlink="http://www.w3.org/1999/xlink">
    <!-- Generator: Sketch 49 (51002) - http://www.bohemiancoding.com/sketch -->
    <title>Products BG</title>
    <desc>Created with Sketch.</desc>
    <defs>
        <linearGradient x1="50%" y1="1.41638472e-14%" x2="50%" y2="100%" id="linearGradient-1">
            <stop stop-color="#7958D8" offset="0%"></stop>
            <stop stop-color="#5C50CA" offset="100%"></stop>
        </linearGradient>
        <path d="M0,916 L0,0 L1440,0 L1440,916 C1437.6995,938.751156 1421.66657,958.774422 1398.15348,964.89108 L734.141723,1214.3523 C724.756248,1216.77084 714.890914,1216.77084 705.491326,1214.3523 L41.7194943,964.89108 C35.7635989,963.344339 30.1182005,960.841431 24.9667745,957.480784 C10.1476036,947.778499 1.60893855,932.311088 0,916 Z" id="path-2"></path>
        <linearGradient x1="50%" y1="1.41638472e-14%" x2="19.1052525%" y2="57.5370937%" id="linearGradient-4">
            <stop stop-color="#7958D8" offset="0%"></stop>
            <stop stop-color="#5C50CA" offset="100%"></stop>
        </linearGradient>
        <polygon id="path-5" points="0.89903026 0.0775936511 113.883496 0.0775936511 113.883496 168.862815 0.89903026 168.862815"></polygon>
        <polygon id="path-7" points="0 0 466.544743 0 466.544743 395.785785 0 395.785785"></polygon>
        <polygon id="path-9" points="0.303497983 0 378.871499 0 378.871499 83.1102451 0.303497983 83.1102451"></polygon>
        <polygon id="path-11" points="0.898952763 0.0644302866 113.873679 0.0644302866 113.873679 140.216105 0.898952763 140.216105"></polygon>
        <polygon id="path-13" points="0 0 466.504526 0 466.504526 328.642759 0 328.642759"></polygon>
        <polygon id="path-15" points="0.303471822 0 378.838839 0 378.838839 69.0110187 0.303471822 69.0110187"></polygon>
    </defs>
    <g id="High-Fidelity" stroke="none" stroke-width="1" fill="none" fill-rule="evenodd">
        <g id="Home-Smaller" transform="translate(0.000000, -3248.000000)">
            <g id="Products-BG" transform="translate(0.000000, 3248.000000)">
                <mask id="mask-3" fill="white">
                    <use xlink:href="#path-2"></use>
                </mask>
                <use id="Mask" fill="url(#linearGradient-1)" xlink:href="#path-2"></use>
                <g id="Page-1" opacity="0.357620018" mask="url(#mask-3)">
                    <g transform="translate(725.000000, 143.000000)">
                        <path d="M446.481973,604.850372 L446.481973,533.869343 C446.481973,505.882117 423.712987,483.113069 395.725838,483.113069 C367.738689,483.113069 344.969702,505.882117 344.969702,533.869343 L344.969702,597.956158 C344.969702,675.185608 316.518189,749.332965 264.852762,806.73723 L193.619226,885.88678 C187.634322,892.536931 188.174281,902.778899 194.824414,908.76598 C201.472388,914.7509 211.714328,914.21094 217.701392,907.560788 L288.934929,828.411239 C345.961067,765.045811 377.367236,683.202939 377.367236,597.956158 L377.367236,533.869343 C377.367236,523.746166 385.602689,515.510691 395.725838,515.510691 C405.848987,515.510691 414.08444,523.746166 414.08444,533.869343 L414.08444,604.850372 C414.08444,699.889874 378.876961,790.957429 314.945828,861.281866 L245.509275,937.662498 C239.491973,944.280253 239.980096,954.5287 246.599992,960.546018 C249.703676,963.368931 253.602179,964.757709 257.489883,964.757709 C261.895948,964.757709 266.284733,962.97152 269.48129,959.455299 L338.915683,883.074666 C408.280962,806.773948 446.481973,707.965522 446.481973,604.850372" id="Fill-1" fill="url(#linearGradient-4)"></path>
                        <path d="M515.510436,534.088138 C515.510436,467.92433 461.740564,414.096916 395.647485,414.096916 C329.554405,414.096916 275.784533,467.92433 275.784533,534.088138 L275.784533,598.239121 C275.784533,658.42715 253.634724,716.211031 213.414764,760.947218 L162.776447,817.273908 C156.791938,823.930718 157.331861,834.182941 163.981555,840.176016 C170.631249,846.166929 180.870353,845.622104 186.857022,838.969618 L237.495339,782.642928 C283.077816,731.941772 308.182085,666.452509 308.182085,598.239121 L308.182085,534.088138 C308.182085,485.806265 347.419384,446.526976 395.649644,446.526976 C443.879905,446.526976 483.117204,485.806265 483.117204,534.088138 L483.117204,605.140238 C483.117204,717.519044 441.530159,825.208463 366.01218,908.365623 L307.430512,972.87766 C301.411448,979.50204 301.899539,989.760749 308.518997,995.784092 C311.622476,998.609831 315.520721,1000 319.408168,1000 C323.813942,1000 328.202438,998.212023 331.398783,994.69228 L389.982611,930.180243 C470.930057,841.040818 515.510436,725.6071 515.510436,605.140238 L515.510436,534.088138 Z" id="Fill-3" fill="url(#linearGradient-4)"></path>
                        <path d="M586.00759,534.242566 C586.00759,429.937667 501.129647,345.080764 396.798887,345.080764 C292.468127,345.080764 207.590184,429.937667 207.590184,534.242566 L207.590184,598.388955 C207.590184,641.452991 191.720439,682.798356 162.904494,714.806695 L117.252218,765.519353 C111.260249,772.175687 111.800845,782.427175 118.458829,788.419821 C125.114651,794.410305 135.370844,793.865519 141.362813,787.213509 L187.015089,736.500851 C221.200236,698.527971 240.025961,649.477775 240.025961,598.388955 L240.025961,534.242566 C240.025961,447.818322 310.353215,377.508501 396.798887,377.508501 C483.244559,377.508501 553.571812,447.818322 553.571812,534.242566 L553.571812,605.289578 C553.571812,734.90973 505.540913,859.116613 418.325431,955.027052 L402.092406,972.879602 C396.068001,979.50567 396.5567,989.761482 403.18441,995.784394 C406.291758,998.607769 410.197026,1000 414.087156,1000 C418.498422,1000 422.892389,998.212151 426.092719,994.69266 L442.323582,976.84011 C534.977462,874.945673 586.005428,742.995046 586.005428,605.289578 L586.005428,534.242566 L586.00759,534.242566 Z" id="Fill-5" fill="url(#linearGradient-4)"></path>
                        <path d="M138.056926,534.472518 C138.056926,543.414921 145.299265,550.660793 154.23249,550.660793 C163.165715,550.660793 170.408055,543.414921 170.408055,534.472518 C170.408055,479.961202 190.183221,427.303983 226.092974,386.198716 C261.668431,345.475493 310.494911,318.844702 363.576643,311.212471 C372.419285,309.941151 378.557372,301.734776 377.287051,292.887344 C376.01673,284.037754 367.810327,277.903477 358.976313,279.166162 C298.242461,287.899197 242.400099,318.341787 201.736887,364.89063 C160.672522,411.894904 138.056926,472.12176 138.056926,534.472518" id="Fill-7" fill="url(#linearGradient-4)"></path>
                        <path d="M170.368121,599.18709 C170.368121,590.226685 163.096284,582.966226 154.126673,582.966226 C145.157062,582.966226 137.885224,590.226685 137.885224,599.18709 C137.885224,625.144799 128.311432,650.062209 110.926585,669.354224 L70.2601633,714.484993 C64.2594894,721.142036 64.800871,731.397948 71.4685271,737.393179 C74.573892,740.183168 78.456681,741.556535 82.3286424,741.556535 C86.7723027,741.556535 91.2008044,739.744123 94.4057836,736.186347 L135.072205,691.05774 C157.831889,665.79861 170.368121,633.173045 170.368121,599.18709" id="Fill-9" fill="url(#linearGradient-4)"></path>
                        <path d="M623.69357,743.550701 C614.928718,741.305967 605.973658,746.455524 603.678049,755.068936 C597.624201,777.81514 590.094604,800.428036 581.290398,822.277636 C577.954114,830.557779 582.075278,839.930186 590.494696,843.209132 C592.477665,843.981027 594.519663,844.346549 596.531054,844.346549 C603.057141,844.346549 609.229049,840.48707 611.780454,834.157093 C621.070018,811.096971 629.017196,787.237001 635.405547,763.232972 C637.696783,754.61956 632.451864,745.806185 623.69357,743.550701" id="Fill-11" fill="url(#linearGradient-4)"></path>
                        <path d="M569.059827,341.886575 C562.384775,335.910433 552.111132,336.458228 546.112035,343.100782 C540.112938,349.743336 540.658901,359.970281 547.331786,365.94211 C595.12741,408.713257 622.538236,469.801031 622.538236,533.545826 L622.538236,604.422741 C622.538236,631.322928 620.675027,658.430156 616.998441,684.993902 C615.774357,693.84489 621.987939,702.005742 630.877176,703.224262 C631.628958,703.327783 632.376408,703.377386 633.115192,703.377386 C641.105322,703.377386 648.070688,697.506921 649.190779,689.406456 C653.068852,661.384798 655.036053,632.791623 655.036053,604.420584 L655.036053,533.545826 C655.03822,460.639482 623.699491,390.782674 569.059827,341.886575" id="Fill-13" fill="url(#linearGradient-4)"></path>
                        <path d="M492.373302,330.300408 C494.618803,331.363408 496.985101,331.864905 499.316885,331.864905 C505.36313,331.864905 511.163471,328.480877 513.935296,322.696527 C517.777023,314.683305 514.349452,305.090585 506.284196,301.275785 C482.974982,290.2493 458.201122,282.810441 432.65072,279.164951 C423.793823,277.91121 415.607771,284.004174 414.337262,292.788928 C413.066752,301.573683 419.205751,309.721923 428.049706,310.984236 C450.370986,314.171093 472.010634,320.669111 492.373302,330.300408" id="Fill-15" fill="url(#linearGradient-4)"></path>
                        <path d="M396.348667,207.048458 C390.278853,207.048458 384.139819,207.216805 378.098126,207.549183 C369.151316,208.041274 362.298441,215.677321 362.79164,224.60187 C363.287003,233.528577 370.931593,240.402746 379.884892,239.871806 C385.33388,239.571803 390.871558,239.420722 396.346503,239.420722 C559.158543,239.420722 691.617188,371.579588 691.617188,534.027963 L691.617188,604.958163 C691.617188,613.899979 698.881063,621.145374 707.840852,621.145374 C716.800641,621.145374 724.064516,613.899979 724.064516,604.958163 L724.064516,534.030121 C724.066679,353.732648 577.052162,207.048458 396.348667,207.048458" id="Fill-17" fill="url(#linearGradient-4)"></path>
                        <path d="M218.842545,295.154185 C222.022589,295.154185 225.237082,294.211619 228.046803,292.250821 C254.912469,273.492455 284.417766,259.487995 315.74669,250.617927 C324.330872,248.188008 329.328084,239.229305 326.908064,230.612173 C324.488044,221.995042 315.563682,216.983875 306.983807,219.405146 C272.190637,229.254532 239.429939,244.804714 209.610298,265.623323 C202.2878,270.736097 200.479244,280.840581 205.57119,288.190868 C208.708173,292.726428 213.733375,295.154185 218.842545,295.154185" id="Fill-19" fill="url(#linearGradient-4)"></path>
                        <path d="M101.28617,599.365502 L101.28617,535.180655 C101.28617,459.708515 129.981827,387.831523 182.087042,332.785964 C188.257053,326.266244 187.955177,315.999957 181.409448,309.852298 C174.86372,303.704639 164.554306,304.009642 158.384295,310.527199 C100.556454,371.616586 68.7095518,451.402037 68.7095518,535.180655 L68.7095518,599.365502 C68.7095518,608.197625 65.4432029,616.674991 59.5142584,623.235811 L39.4296874,645.462129 C33.4117001,652.122453 33.9546437,662.380088 40.6415376,668.374164 C43.7536905,671.166785 47.649854,672.540382 51.5329869,672.540382 C55.9894683,672.540382 60.4285754,670.729829 63.6449735,667.171455 L83.7295446,644.945137 C95.0510053,632.411873 101.28617,616.225057 101.28617,599.365502" id="Fill-21" fill="url(#linearGradient-4)"></path>
                        <g id="Group-25" stroke-width="1" fill="none" transform="translate(659.442125, 261.380323)">
                            <mask id="mask-6" fill="white">
                                <use xlink:href="#path-5"></use>
                            </mask>
                            <g id="Clip-24"></g>
                            <path d="M113.03339,147.444557 C95.2531437,94.5191837 66.9962551,46.7053541 29.047338,5.33020822 C22.9887394,-1.2730148 12.7347289,-1.71034301 6.14224741,4.35812719 C-0.450234063,10.4265974 -0.884689399,20.6973154 5.17174768,27.3027034 C40.0297636,65.3069581 65.982526,109.212979 82.3059424,157.79971 C84.5841311,164.582627 90.8999444,168.862815 97.6675049,168.862815 C99.3815501,168.862815 101.125856,168.587861 102.839901,168.009808 C111.323668,165.149855 115.888691,155.942148 113.03339,147.444557" id="Fill-23" fill="url(#linearGradient-4)" mask="url(#mask-6)"></path>
                        </g>
                        <path d="M523.749234,159.47464 C515.285234,156.554121 506.067103,161.103685 503.16942,169.640923 C500.271737,178.175984 504.787887,187.462409 513.256208,190.380751 C548.992134,202.7053 582.543453,220.559454 612.978845,243.453191 C615.889493,245.641948 619.28849,246.696035 622.659396,246.696035 C627.59907,246.696035 632.47824,244.428876 635.661153,240.129766 C641.015708,232.901426 639.537695,222.665451 632.365877,217.270874 C599.225116,192.347365 562.681038,172.899013 523.749234,159.47464" id="Fill-26" fill="url(#linearGradient-4)"></path>
                        <g id="Group-30" stroke-width="1" fill="none" transform="translate(0.000000, 138.032305)">
                            <mask id="mask-8" fill="white">
                                <use xlink:href="#path-7"></use>
                            </mask>
                            <g id="Clip-29"></g>
                            <path d="M144.193199,133.890921 C212.308847,68.4701925 301.663001,32.4411032 395.795118,32.4411032 C413.27473,32.4411032 430.851499,33.7019808 448.035322,36.1848066 C456.893876,37.4781252 465.098239,31.3143156 466.376393,22.4470807 C467.654546,13.5798458 461.516387,5.35710751 452.664311,4.07676531 C433.949726,1.37334004 414.816287,0 395.795118,0 C293.268642,0 195.954096,39.2342703 121.780173,110.474933 C47.8372683,181.494996 4.59379582,276.800469 0.0166246312,378.83639 C-0.384957369,387.785809 6.53261645,395.368376 15.4645774,395.768483 C15.7128673,395.781459 15.9589982,395.785785 16.2051291,395.785785 C24.8132336,395.785785 31.9790974,388.994781 32.3698842,380.294077 C36.5692229,286.621473 76.28266,199.114841 144.193199,133.890921" id="Fill-28" fill="url(#linearGradient-4)" mask="url(#mask-8)"></path>
                        </g>
                        <path d="M395.833744,69.0161527 C359.620285,69.0161527 323.534217,73.2077548 288.57955,81.4745255 C279.87597,83.5315155 274.49318,92.2467704 276.55302,100.936151 C278.615019,109.625532 287.34235,115.00303 296.043772,112.943884 C328.556427,105.25928 362.129231,101.358761 395.833744,101.358761 C514.578996,101.358761 625.421716,148.602688 707.940554,234.38391 C711.120999,237.689325 715.365911,239.353891 719.621618,239.353891 C723.657091,239.353891 727.699042,237.857507 730.838463,234.845332 C737.287879,228.657113 737.495158,218.419599 731.298364,211.981264 C688.302979,167.285935 637.79803,132.125207 581.189131,107.482295 C522.554939,81.9575085 460.191874,69.0161527 395.833744,69.0161527" id="Fill-31" fill="url(#linearGradient-4)"></path>
                        <path d="M32.6407319,271.137899 C35.600111,273.466548 39.1138345,274.596182 42.6038312,274.596182 C47.4074298,274.596182 52.1614179,272.456166 55.3515941,268.360431 C101.457082,209.164159 162.154552,162.732097 230.880309,134.079298 C239.132921,130.63836 243.05,121.124286 239.62687,112.828742 C236.20374,104.533199 226.73459,100.591406 218.486291,104.03668 C144.629074,134.827328 79.408413,184.715505 29.8776381,248.306724 C24.3687064,255.381569 25.606814,265.602477 32.6407319,271.137899" id="Fill-33" fill="url(#linearGradient-4)"></path>
                        <g id="Group-37" stroke-width="1" fill="none" transform="translate(155.681214, 0.000000)">
                            <mask id="mask-10" fill="white">
                                <use xlink:href="#path-9"></use>
                            </mask>
                            <g id="Clip-36"></g>
                            <path d="M16.527905,83.1102451 C18.8923802,83.1102451 21.2935977,82.5951655 23.5629752,81.5049136 C91.8128819,48.7823337 165.066226,32.1924771 241.289212,32.1924771 C281.009802,32.1924771 320.570454,36.8324862 358.86674,45.9837343 C367.56602,48.0569299 376.323656,42.743025 378.417967,34.1004179 C380.512278,25.4578109 375.154386,16.7636959 366.448622,14.6840619 C325.673312,4.94047216 283.562311,-5.68434189e-14 241.289212,-5.68434189e-14 C160.144918,-5.68434189e-14 82.1496564,17.6672314 9.46906036,52.5145149 C1.40736702,56.3797583 -1.97292476,66.0031628 1.91959794,74.0083587 C4.71417421,79.7579352 10.5021674,83.1102451 16.527905,83.1102451" id="Fill-35" fill="url(#linearGradient-4)" mask="url(#mask-10)"></path>
                        </g>
                        <path d="M581.604671,67.927232 C598.423388,74.5699229 615.070264,82.2071835 631.081979,90.6232722 C633.516038,91.9047787 636.13064,92.5110132 638.706087,92.5110132 C644.55305,92.5110132 650.206418,89.3849141 653.13425,83.9029143 C657.351981,76.0067634 654.319739,66.2142419 646.358473,62.0288504 C629.311359,53.0690923 611.585579,44.9377829 593.674907,37.8636084 C585.302526,34.5562861 575.816439,38.6079177 572.481843,46.9075058 C569.149423,55.2092513 573.234466,64.6220672 581.604671,67.927232" id="Fill-38" fill="url(#linearGradient-4)"></path>
                    </g>
                </g>
                <g id="Page-1-Copy" opacity="0.357620018" mask="url(#mask-3)">
                    <g transform="translate(253.950025, 251.997203) rotate(-225.000000) translate(-253.950025, -251.997203) translate(-133.049975, -163.502797)">
                        <path d="M446.443486,502.240611 L446.443486,443.30115 C446.443486,420.061813 423.676462,401.155417 395.691726,401.155417 C367.706989,401.155417 344.939966,420.061813 344.939966,443.30115 L344.939966,496.515966 C344.939966,560.643836 316.490904,622.212474 264.829932,669.878401 L193.602536,735.600636 C187.618147,741.122623 188.15806,749.627094 194.80762,754.598497 C201.455021,759.568107 211.696078,759.119748 217.682626,753.59776 L288.910022,687.875525 C345.931245,635.259717 377.334706,567.301068 377.334706,496.515966 L377.334706,443.30115 C377.334706,434.895318 385.569449,428.056949 395.691726,428.056949 C405.814002,428.056949 414.048745,434.895318 414.048745,443.30115 L414.048745,502.240611 C414.048745,581.15715 378.844301,656.775562 314.91868,715.169819 L245.488112,778.59287 C239.471329,784.087956 239.95941,792.597807 246.578735,797.594318 C249.682151,799.938338 253.580318,801.091517 257.467687,801.091517 C261.873372,801.091517 266.261779,799.608346 269.45806,796.688633 L338.886468,733.265583 C408.245768,669.908889 446.443486,587.862806 446.443486,502.240611" id="Fill-1" fill="url(#linearGradient-4)"></path>
                        <path d="M515.465999,443.482828 C515.465999,388.54337 461.700762,343.8475 395.613379,343.8475 C329.525997,343.8475 275.76076,388.54337 275.76076,443.482828 L275.76076,496.750925 C275.76076,546.728365 253.61286,594.709507 213.396367,631.856429 L162.762415,678.627585 C156.778422,684.155102 157.318299,692.668088 163.96742,697.644469 C170.616541,702.619054 180.854762,702.166656 186.840914,696.64273 L237.474867,649.871573 C283.053414,607.771608 308.155519,553.392262 308.155519,496.750925 L308.155519,443.482828 C308.155519,403.391726 347.389436,370.775967 395.615539,370.775967 C443.841642,370.775967 483.075558,403.391726 483.075558,443.482828 L483.075558,502.481303 C483.075558,595.795622 441.492098,685.216084 365.980629,754.266058 L307.404011,807.83396 C301.385466,813.334548 301.873515,821.852919 308.492402,826.854433 C311.595614,829.2008 315.493523,830.355134 319.380635,830.355134 C323.786029,830.355134 328.174146,828.870478 331.370216,825.947842 L389.948993,772.37994 C470.889462,698.362561 515.465999,602.511581 515.465999,502.481303 L515.465999,443.482828 Z" id="Fill-3" fill="url(#linearGradient-4)"></path>
                        <path d="M585.957075,443.611058 C585.957075,357.000949 501.086449,286.539584 396.764682,286.539584 C292.442916,286.539584 207.572289,357.000949 207.572289,443.611058 L207.572289,496.875341 C207.572289,532.633784 191.703912,566.965121 162.890451,593.543409 L117.242111,635.652925 C111.250658,641.180046 111.791208,649.692422 118.448618,654.668446 C125.103866,659.642676 135.359174,659.19031 141.350627,653.666779 L186.998968,611.557263 C221.181168,580.026287 240.005271,539.297205 240.005271,496.875341 L240.005271,443.611058 C240.005271,371.848243 310.326462,313.466122 396.764682,313.466122 C483.202903,313.466122 553.524094,371.848243 553.524094,443.611058 L553.524094,502.605308 C553.524094,610.236068 505.497335,713.37189 418.289371,793.011615 L402.057745,807.835572 C396.033859,813.337562 396.522516,821.853528 403.149655,826.854684 C406.256735,829.199088 410.161666,830.355134 414.051462,830.355134 C418.462347,830.355134 422.855935,828.870584 426.055989,825.948157 L442.285453,811.1242 C534.931346,726.515631 585.954913,616.949751 585.954913,502.605308 L585.954913,443.611058 L585.957075,443.611058 Z" id="Fill-5" fill="url(#linearGradient-4)"></path>
                        <path d="M138.045025,443.802 C138.045025,451.22737 145.28674,457.244017 154.219195,457.244017 C163.15165,457.244017 170.393365,451.22737 170.393365,443.802 C170.393365,398.538248 190.166827,354.814056 226.073484,320.682087 C261.645875,286.867349 310.468146,264.754336 363.545302,258.416873 C372.387182,257.361226 378.52474,250.54702 377.254529,243.20051 C375.984317,235.852207 367.778622,230.758579 358.945368,231.807056 C298.216752,239.058576 242.379204,264.336737 201.719497,302.988808 C160.658671,342.019048 138.045025,392.028728 138.045025,443.802" id="Fill-7" fill="url(#linearGradient-4)"></path>
                        <path d="M170.353435,497.538077 C170.353435,490.097758 163.082224,484.068999 154.113387,484.068999 C145.144549,484.068999 137.873338,490.097758 137.873338,497.538077 C137.873338,519.092193 128.300371,539.782493 110.917023,555.801716 L70.2541068,593.276283 C64.2539502,598.803992 64.7952851,607.320041 71.4623664,612.298212 C74.5674637,614.614894 78.4499179,615.755276 82.3215455,615.755276 C86.7648228,615.755276 91.1929427,614.250331 94.3976456,611.296113 L135.060562,573.823342 C157.818283,552.849294 170.353435,525.758489 170.353435,497.538077" id="Fill-9" fill="url(#linearGradient-4)"></path>
                        <path d="M569.010773,283.887273 C562.336297,278.924952 552.063539,279.379817 546.064959,284.895496 C540.066379,290.411175 540.612296,298.903171 547.284605,303.86191 C595.076109,339.377151 622.484572,390.101698 622.484572,443.032516 L622.484572,501.885526 C622.484572,524.222235 620.621524,546.73086 616.945255,568.788203 C615.721276,576.137666 621.934323,582.914072 630.822793,583.925877 C631.574511,584.011835 632.321896,584.053024 633.060617,584.053024 C641.050058,584.053024 648.014823,579.178453 649.134818,572.45219 C653.012556,549.184263 654.979588,525.441773 654.979588,501.883735 L654.979588,443.032516 C654.981754,382.494359 623.645727,324.4884 569.010773,283.887273" id="Fill-13" fill="url(#linearGradient-4)"></path>
                        <path d="M492.330858,274.26664 C494.576167,275.149307 496.94226,275.565727 499.273843,275.565727 C505.319567,275.565727 511.119408,272.755783 513.890994,267.952718 C517.73239,261.298898 514.305114,253.333533 506.240554,250.165895 C482.933348,241.009997 458.161624,234.833102 432.613425,231.80605 C423.757291,230.765 415.571945,235.824324 414.301545,243.11879 C413.031145,250.413256 419.169615,257.179189 428.012808,258.227357 C450.332164,260.87358 471.969946,266.269243 492.330858,274.26664" id="Fill-15" fill="url(#linearGradient-4)"></path>
                        <path d="M396.314501,171.92375 C390.245211,171.92375 384.106705,172.063538 378.065534,172.339529 C369.119495,172.74814 362.26721,179.088771 362.760367,186.499316 C363.255687,193.911653 370.899618,199.619654 379.852146,199.178785 C385.300664,198.929676 390.837864,198.804226 396.312338,198.804226 C559.110342,198.804226 691.55757,308.543018 691.55757,443.432861 L691.55757,502.330117 C691.55757,509.754999 698.820819,515.771251 707.779835,515.771251 C716.738852,515.771251 724.002101,509.754999 724.002101,502.330117 L724.002101,443.434653 C724.004264,293.72372 577.00242,171.92375 396.314501,171.92375" id="Fill-17" fill="url(#linearGradient-4)"></path>
                        <path d="M218.823681,245.082793 C222.00345,245.082793 225.217666,244.300128 228.027145,242.67197 C254.890495,227.095864 284.393249,215.467189 315.719473,208.101882 C324.302914,206.084187 329.299695,198.645281 326.879884,191.490002 C324.460072,184.334723 315.53648,180.173675 306.957344,182.18419 C272.167174,190.362678 239.4093,203.274851 209.592229,220.56169 C202.270362,224.807108 200.461962,233.197418 205.553469,239.300767 C208.690182,243.066893 213.714951,245.082793 218.823681,245.082793" id="Fill-19" fill="url(#linearGradient-4)"></path>
                        <path d="M101.277439,497.686222 L101.277439,444.390004 C101.277439,381.721326 129.970622,322.037896 182.071346,276.330534 C188.240825,270.916851 187.938975,262.392186 181.393811,257.287446 C174.848646,252.182706 164.540121,252.435967 158.370642,257.847854 C100.547786,308.57374 68.7036289,374.823999 68.7036289,444.390004 L68.7036289,497.686222 C68.7036289,505.02002 65.4375616,512.059245 59.5091281,517.507055 L39.4262885,535.962793 C33.40882,541.493227 33.9517168,550.010707 40.6380342,554.987918 C43.7499188,557.306785 47.6457465,558.447359 51.5285447,558.447359 C55.9846419,558.447359 60.4233664,556.943957 63.6394873,553.989243 L83.722327,535.533506 C95.0428117,525.126446 101.277439,511.68564 101.277439,497.686222" id="Fill-21" fill="url(#linearGradient-4)"></path>
                        <g id="Group-25" stroke-width="1" fill="none" transform="translate(659.385280, 217.038493)">
                            <mask id="mask-12" fill="white">
                                <use xlink:href="#path-11"></use>
                            </mask>
                            <g id="Clip-24"></g>
                            <path d="M113.023647,122.431345 C95.2449327,78.4844895 66.9904799,38.7820306 29.044834,4.42596576 C22.9867577,-1.05705437 12.7336311,-1.4201921 6.14171794,3.61879329 C-0.450195252,8.65777867 -0.884613137,17.1861221 5.17130187,22.67094 C40.026313,54.2279679 65.9768382,90.6855575 82.2988475,131.029799 C84.5768398,136.66203 90.8921087,140.216105 97.6590859,140.216105 C99.3729833,140.216105 101.117139,139.987796 102.831036,139.507807 C111.314072,137.13303 115.878702,129.487363 113.023647,122.431345" id="Fill-23" fill="url(#linearGradient-4)" mask="url(#mask-12)"></path>
                        </g>
                        <path d="M523.704086,132.420586 C515.240816,129.995518 506.023479,133.773272 503.126046,140.862212 C500.228613,147.949343 504.744374,155.660374 513.211965,158.083634 C548.94481,168.317387 582.493237,183.142675 612.926006,202.152607 C615.836402,203.970052 619.235106,204.845319 622.605722,204.845319 C627.54497,204.845319 632.42372,202.962772 635.606358,199.392984 C640.960451,193.390895 639.482566,184.8914 632.311366,180.411986 C599.173462,159.716622 562.632534,143.567583 523.704086,132.420586" id="Fill-26" fill="url(#linearGradient-4)"></path>
                        <g id="Group-30" stroke-width="1" fill="none" transform="translate(0.000000, 114.615833)">
                            <mask id="mask-14" fill="white">
                                <use xlink:href="#path-13"></use>
                            </mask>
                            <g id="Clip-29"></g>
                            <path d="M144.180769,111.177014 C212.290546,56.8545759 301.636997,26.9376366 395.760999,26.9376366 C413.239105,26.9376366 430.814359,27.9846128 447.996701,30.0462399 C456.854491,31.1201537 465.058147,26.0020027 466.33619,18.6390487 C467.614234,11.2760947 461.476604,4.44830173 452.62529,3.385163 C433.912319,1.14035995 414.780529,0 395.760999,0 C293.243362,0 195.937205,32.5783777 121.769676,91.7334278 C47.8331447,150.705302 4.59339983,229.842691 0.0166231981,314.568741 C-0.384924185,321.999937 6.53205333,328.296161 15.4632443,328.628392 C15.7115129,328.639167 15.9576226,328.642759 16.2037322,328.642759 C24.8110947,328.642759 31.9763408,323.003813 32.3670939,315.779139 C36.5660705,237.997611 76.2760844,165.33603 144.180769,111.177014" id="Fill-28" fill="url(#linearGradient-4)" mask="url(#mask-14)"></path>
                        </g>
                        <path d="M395.799622,57.3079167 C359.589286,57.3079167 323.506328,60.788435 288.554674,67.6527906 C279.851844,69.3608227 274.469518,76.5975794 276.529181,83.8128514 C278.591002,91.0281234 287.317581,95.4933562 296.018252,93.7835337 C328.528105,87.4025835 362.098015,84.1637678 395.799622,84.1637678 C514.534638,84.1637678 625.367804,123.393005 707.879529,194.621883 C711.0597,197.366551 715.304245,198.748733 719.559586,198.748733 C723.594711,198.748733 727.636313,197.506202 730.775464,195.005027 C737.224323,189.866607 737.431585,181.365835 731.235325,176.019731 C688.243647,138.906735 637.743051,109.710844 581.139032,89.2484756 C522.509894,68.053838 460.152205,57.3079167 395.799622,57.3079167" id="Fill-31" fill="url(#linearGradient-4)"></path>
                        <path d="M32.6379182,225.140746 C35.5970422,227.074352 39.1104628,228.01235 42.6001587,228.01235 C47.4033433,228.01235 52.1569215,226.235376 55.3468227,222.834462 C101.448336,173.680533 162.140574,135.125432 230.860407,111.333433 C239.112308,108.476233 243.029049,100.576173 239.606214,93.6879255 C236.183379,86.7996781 226.715045,83.5265904 218.467457,86.3873915 C144.616607,111.954564 79.4015679,153.379468 29.8750626,206.182763 C24.3666057,212.057397 25.6046066,220.54438 32.6379182,225.140746" id="Fill-33" fill="url(#linearGradient-4)"></path>
                        <g id="Group-37" stroke-width="1" fill="none" transform="translate(155.667794, 0.000000)">
                            <mask id="mask-16" fill="white">
                                <use xlink:href="#path-15"></use>
                            </mask>
                            <g id="Clip-36"></g>
                            <path d="M16.5264802,69.0110187 C18.8907516,69.0110187 21.2917621,68.5833197 23.560944,67.6780234 C91.8049675,40.5066612 165.051997,26.7311887 241.268412,26.7311887 C280.985578,26.7311887 320.542821,30.584044 358.835805,38.1828299 C367.534335,39.9043184 376.291216,35.4918902 378.385347,28.3154571 C380.479478,21.139024 375.122047,13.919821 366.417033,12.1929862 C325.645238,4.10234642 283.537868,-5.68434189e-14 241.268412,-5.68434189e-14 C160.131114,-5.68434189e-14 82.142575,14.6700763 9.46824411,43.605697 C1.40724571,46.8152217 -1.9727547,54.8060651 1.91943247,61.4532206 C4.71376784,66.2274109 10.5012621,69.0110187 16.5264802,69.0110187" id="Fill-35" fill="url(#linearGradient-4)" mask="url(#mask-16)"></path>
                        </g>
                        <path d="M581.554536,56.4037258 C598.371803,61.9195183 615.017244,68.2611569 631.027579,75.2494994 C633.461428,76.3136048 636.075804,76.8169948 638.65103,76.8169948 C644.497488,76.8169948 650.15037,74.2212224 653.077949,69.6692157 C657.295316,63.1126062 654.263336,54.9813357 646.302756,51.5059744 C629.257111,44.0661933 611.53286,37.3143187 593.623731,31.4402416 C585.252072,28.6939896 575.766803,32.0582826 572.432495,38.9498882 C569.100361,45.8432852 573.185052,53.6592653 581.554536,56.4037258" id="Fill-38" fill="url(#linearGradient-4)"></path>
                    </g>
                </g>
            </g>
        </g>
    </g>
</svg>