<?xml version="1.0" encoding="UTF-8"?>
<svg width="80px" height="70px" viewBox="0 0 80 70" version="1.1" xmlns="http://www.w3.org/2000/svg" xmlns:xlink="http://www.w3.org/1999/xlink">
    <!-- Generator: Sketch 49 (51002) - http://www.bohemiancoding.com/sketch -->
    <title>“</title>
    <desc>Created with Sketch.</desc>
    <defs></defs>
    <g id="High-Fidelity" stroke="none" stroke-width="1" fill="none" fill-rule="evenodd">
        <g id="Home-Smaller" transform="translate(-393.000000, -4044.000000)" fill="#5C50CA">
            <path d="M427.2,4053.8 C420.933302,4057.40002 416.033351,4061.83331 412.5,4067.1 C408.966649,4072.36669 407.000002,4078.46663 406.6,4085.4 C408.200008,4084.6 409.933324,4084.2 411.8,4084.2 C415.933354,4084.2 419.299987,4085.53332 421.9,4088.2 C424.500013,4090.86668 425.8,4094.33331 425.8,4098.6 C425.8,4103.26669 424.400014,4106.99999 421.6,4109.8 C418.799986,4112.60001 415.266688,4114 411,4114 C405.799974,4114 401.500017,4111.90002 398.1,4107.7 C394.699983,4103.49998 393,4097.60004 393,4090 C393,4079.99995 395.533308,4071.03337 400.6,4063.1 C405.666692,4055.16663 412.733288,4048.86669 421.8,4044.2 L427.2,4053.8 Z M473,4053.8 C466.733302,4057.40002 461.833351,4061.83331 458.3,4067.1 C454.766649,4072.36669 452.800002,4078.46663 452.4,4085.4 C454.000008,4084.6 455.733324,4084.2 457.6,4084.2 C461.733354,4084.2 465.099987,4085.53332 467.7,4088.2 C470.300013,4090.86668 471.6,4094.33331 471.6,4098.6 C471.6,4103.26669 470.200014,4106.99999 467.4,4109.8 C464.599986,4112.60001 461.066688,4114 456.8,4114 C451.599974,4114 447.300017,4111.90002 443.9,4107.7 C440.499983,4103.49998 438.8,4097.60004 438.8,4090 C438.8,4079.99995 441.333308,4071.03337 446.4,4063.1 C451.466692,4055.16663 458.533288,4048.86669 467.6,4044.2 L473,4053.8 Z" id="“"></path>
        </g>
    </g>
</svg>