<svg xmlns="http://www.w3.org/2000/svg" viewBox="0 0 48 48"><defs><style>.cls-1{fill:#fff;}.cls-2{fill:#5c50ca;}</style></defs><title>Reddit Icon</title><g id="Layer_2" data-name="Layer 2"><g id="Icons"><rect class="cls-1" width="48" height="48" rx="12" ry="12"/><path class="cls-2" d="M22.4,19.45A1.56,1.56,0,1,0,20.84,21,1.54,1.54,0,0,0,22.4,19.45Z"/><path class="cls-2" d="M27.34,17.93a1.52,1.52,0,1,0,1.56,1.52A1.54,1.54,0,0,0,27.34,17.93Z"/><path class="cls-2" d="M29.59,11a2.07,2.07,0,1,0,2.06-2,2.07,2.07,0,0,0-1.91,1.25l-4.27-1L23.7,14.15a12.93,12.93,0,0,0-6.51,1.77,2.57,2.57,0,0,0-1.66-.61A2.5,2.5,0,0,0,13,17.77a2.46,2.46,0,0,0,1.17,2.07,3.64,3.64,0,0,0-.07.74c0,2.42,2,4.52,5.08,5.62a5,5,0,0,0-2.69,4.11c0,1.81,1.25,3.48,3.34,4.47l0-.06a10.26,10.26,0,0,0,.31,1.1h-.84a2.37,2.37,0,0,0-1.76.67,3.1,3.1,0,0,0-.74,2.14l0,.37H31v-.37a3.19,3.19,0,0,0-.77-2.18,2.25,2.25,0,0,0-1.64-.63h-.86a10.08,10.08,0,0,0,.36-1.24l.06.11a5.13,5.13,0,0,0,3.16-4.38,4.87,4.87,0,0,0-2.56-4v-.07c3-1.1,5.09-3.21,5.09-5.63a4.39,4.39,0,0,0-.07-.72A2.46,2.46,0,0,0,35,17.77a2.5,2.5,0,0,0-2.54-2.46,2.56,2.56,0,0,0-1.66.62,12.94,12.94,0,0,0-6.26-1.77l1.44-4Zm2.06-1.24A1.24,1.24,0,1,1,30.38,11,1.26,1.26,0,0,1,31.65,9.77Zm-17.86,8a1.72,1.72,0,0,1,1.74-1.69,1.75,1.75,0,0,1,1,.3A6.14,6.14,0,0,0,14.4,19,1.63,1.63,0,0,1,13.79,17.77Zm13.89,8.78.3.15c-.05,7.11-.78,11.48-4,11.48-3.55,0-3.95-5.4-4-11.57l.18-.08A14.28,14.28,0,0,0,24,27,14.64,14.64,0,0,0,27.68,26.55Zm-10.4,3.76a4,4,0,0,1,1.95-3.23,42.1,42.1,0,0,0,.45,6.73A4.21,4.21,0,0,1,17.28,30.31ZM18.16,37a1.56,1.56,0,0,1,1.18-.43H20.5a4.54,4.54,0,0,0,1.25,1.63h-4.1A2.06,2.06,0,0,1,18.16,37Zm10.46-.43a1.43,1.43,0,0,1,1.07.39,2.13,2.13,0,0,1,.52,1.24h-4a4.66,4.66,0,0,0,1.25-1.63Zm1.93-6.29a4.17,4.17,0,0,1-2.25,3.41,39.42,39.42,0,0,0,.47-6.51A3.93,3.93,0,0,1,30.55,30.31ZM24,26.25c-5,0-9.09-2.54-9.09-5.67S19,14.92,24,14.92s9.09,2.54,9.09,5.66S29,26.25,24,26.25Zm8.48-10.17a1.72,1.72,0,0,1,1.74,1.69,1.66,1.66,0,0,1-.63,1.29,6.09,6.09,0,0,0-2.1-2.67A1.73,1.73,0,0,1,32.46,16.08Z"/><path class="cls-2" d="M27.08,23a4.63,4.63,0,0,1-3.12.91,4.13,4.13,0,0,1-3-.9.41.41,0,0,0-.56,0,.38.38,0,0,0,0,.55c0,.05,1.05,1.16,3.59,1.16a5.21,5.21,0,0,0,3.69-1.15.37.37,0,0,0,0-.54A.4.4,0,0,0,27.08,23Z"/></g></g></svg>