<svg xmlns="http://www.w3.org/2000/svg" viewBox="0 0 48 48"><defs><style>.cls-1{fill:#fff;}.cls-2{fill:#5c50ca;}</style></defs><title>Riot icon</title><g id="Layer_2" data-name="Layer 2"><g id="Icons"><rect class="cls-1" width="48" height="48" rx="12" ry="12"/><g id="Layer_2-2" data-name="Layer 2"><g id="Layer_1-2" data-name="Layer 1-2"><path class="cls-2" d="M25.9,11.52a8.52,8.52,0,1,1,0,17h-4a1.57,1.57,0,0,0-1.57,1.58v4a2.48,2.48,0,1,1-5,0h0V14a2.47,2.47,0,0,1,2.47-2.47H25.9m0-1.58H17.82a4.05,4.05,0,0,0-4.05,4h0V34.18a4.05,4.05,0,0,0,8.1,0h0v-4h4a10.1,10.1,0,0,0,0-20.2Z"/><circle class="cls-2" cx="17.8" cy="13.99" r="4.03"/><path class="cls-2" d="M35.26,31.84a4,4,0,1,1-6.61,4.62l-6-8.64a4,4,0,1,1,6.61-4.62Z"/></g></g></g></g></svg>