<svg xmlns="http://www.w3.org/2000/svg" viewBox="0 0 113.21 144"><defs><style>.cls-1{fill:#fff;}</style></defs><title>Riot Logo White</title><g id="Layer_2" data-name="Layer 2"><g id="Layer_1-2" data-name="Layer 1"><path class="cls-1" d="M61.71,8a43.4,43.4,0,1,1,.1,86.8H41.21a8,8,0,0,0-8,8v20.6a12.6,12.6,0,1,1-25.2,0V20.6A12.61,12.61,0,0,1,20.61,8h41.1m0-8H20.61A20.57,20.57,0,0,0,0,20.6V123.4a20.6,20.6,0,1,0,41.2,0V102.8h20.6A51.4,51.4,0,1,0,61.71,0Z"/><circle class="cls-1" cx="20.5" cy="20.62" r="20.5" transform="translate(-8.1 15.39) rotate(-34.81)"/><path class="cls-1" d="M109.41,111.5A20.54,20.54,0,1,1,75.71,135L44.91,91a20.54,20.54,0,0,1,33.7-23.5Z"/></g></g></svg>