<svg xmlns="http://www.w3.org/2000/svg" viewBox="0 0 48 48"><defs><style>.cls-1{fill:#fff;}.cls-2{fill:#5c50ca;}</style></defs><title>Twitter Icon</title><g id="Layer_2" data-name="Layer 2"><g id="Icons"><rect class="cls-1" width="48" height="48" rx="12" ry="12"/><path class="cls-2" d="M38.17,12.44a12.21,12.21,0,0,1-3.91,1.47A6.21,6.21,0,0,0,29.77,12a6.1,6.1,0,0,0-6.15,6.06,6.28,6.28,0,0,0,.15,1.38,17.56,17.56,0,0,1-12.68-6.33,5.94,5.94,0,0,0-.84,3.05,6,6,0,0,0,2.74,5,6.24,6.24,0,0,1-2.78-.76v.08a6.09,6.09,0,0,0,4.93,5.94,6.15,6.15,0,0,1-1.62.21,6.34,6.34,0,0,1-1.16-.11,6.16,6.16,0,0,0,5.75,4.21,12.51,12.51,0,0,1-7.64,2.59A14.17,14.17,0,0,1,9,33.28,17.6,17.6,0,0,0,18.43,36,17.25,17.25,0,0,0,36,18.76c0-.26,0-.52,0-.78A12.38,12.38,0,0,0,39,14.84a12.28,12.28,0,0,1-3.53.95A6,6,0,0,0,38.17,12.44Z"/></g></g></svg>