<svg xmlns="http://www.w3.org/2000/svg" viewBox="0 0 48 48"><defs><style>.cls-1{fill:#fff;}.cls-2{fill:#5c50ca;}</style></defs><title>Youtube Icon</title><g id="Layer_2" data-name="Layer 2"><g id="Icons"><rect class="cls-1" width="48" height="48" rx="12" ry="12"/><g id="Lozenge"><path class="cls-2" d="M38.7,17.74a6.91,6.91,0,0,0-1.19-3.1,4.2,4.2,0,0,0-3-1.32C30.3,13,24,13,24,13h0s-6.29,0-10.49.32a4.2,4.2,0,0,0-3,1.32,6.91,6.91,0,0,0-1.19,3.1A49.57,49.57,0,0,0,9,22.81v2.37a49.25,49.25,0,0,0,.3,5.06,6.94,6.94,0,0,0,1.19,3.11,5,5,0,0,0,3.31,1.33C16.2,34.92,24,35,24,35s6.3,0,10.5-.33a4.2,4.2,0,0,0,3-1.32,6.94,6.94,0,0,0,1.19-3.11,49.25,49.25,0,0,0,.3-5.06V22.81A49.57,49.57,0,0,0,38.7,17.74ZM20.9,28.06V19.27L29,23.68Z"/></g></g></g></svg>