<svg class="truffle-logo" viewBox="655 52 131 128" xmlns="http://www.w3.org/2000/svg" xmlns:xlink="http://www.w3.org/1999/xlink"><defs><path id="a" d="M0 .426h130.715V128H0"/></defs><g fill="none" fill-rule="evenodd"><path d="M755.857 151.926c0 2.162-17.977 3.912-35.223 3.912s-35.222-1.75-35.222-3.912c0-2.16 17.976-3.912 35.222-3.912 17.246 0 35.223 1.752 35.223 3.912" fill="#E6E7E8"/><g transform="translate(655 52)"><mask id="b" fill="#fff"><use xlink:href="#a"/></mask><path d="M117.781 50.426c0 27.614-22.387 50-50 50-16.7 0-31.49-8.188-40.57-20.77-5.934-8.22-8.272-18.317-8.27-29.23 0-15.164 5.59-28.752 16.25-37.921C43.943 4.977 55.331.425 67.781.425c27.613 0 50 22.387 50 50" fill="#5E464D" mask="url(#b)"/></g><path d="M708.894 146.418c2.04.635 8.89 2.666 9.118.5.125-1.187-3.468-2.31-8.404-4.75-7.025-3.473-13.413-7.961-19.083-13.334-6.334-6-12.917-15.541-13.667-29.541-.81-15.11 4.818-27.492 14.332-35.633-11.233 9.169-18.408 23.12-18.408 38.75 0 10.945 3.465 21.013 9.429 29.247a69.82 69.82 0 0 0 6.2 5.01c5.613 4.02 13.764 7.66 20.483 9.75" fill="#FFF"/><path d="M773.467 90.964c-3.068-14.41-12.595-24.502-25.334-31.627 9.74 6.938 23.456 21.684 15.372 34.686-6.856 10.425-23.521 8.38-32.628 3.441-10.827-5.872-24.393-19.092-11.013-32.014 8.66-8.36 36.243 1.014 31.372 13.514-2.831 7.265-13.841 5.652-18.797 2.096-3.654-2.622-6.726-7.13-5.098-11.785.522-1.493.446-3.81-1.661-2.105-1.573 1.273-2.364 3.368-2.64 5.316-2.304 16.297 26.729 28.93 35.34 13.163 4.47-8.185-2.773-20.06-11.891-24.935-6.868-3.672-13.99-6.25-22.731-5.625-13.976 1-25.71 9.742-27.18 24.026-1.455 14.176 8.02 26.97 19.197 34.611 11.738 8.027 27.542 13.32 41.993 8.531 12.952-4.293 18.303-19.16 15.699-31.293" fill="#FFF"/><path d="M755.234 79.927c1.39-9.34-7.054-15.75-14.85-18.666-9.196-3.44-21.338-1.93-28.034 5.686-4.912 5.588-4.578 13.712-2.054 20.271 3.818 9.924 12.44 17.097 22.474 20.193 7.131 2.202 15.751 3.162 22.98.836 10.537-3.389 13.97-14.38 11.792-24.449a28.966 28.966 0 0 0-2.136-6.305c-1.33-2.795-5.408-8.45.213-1.562.614.753 1.101 1.583 1.623 2.402 1.187 1.867 2.053 3.981 2.736 6.077 3.066 9.4.66 20.365-7.849 26.037-6.517 4.344-14.8 4.86-22.36 3.775-10.13-1.452-19.684-6.385-26.317-14.24-6.065-7.18-10.197-17.494-7.705-26.918 1.823-6.898 7.425-12.045 14.13-14.215 8.483-2.748 17.821-1.473 25.467 2.988 3.824 2.231 7.327 5.316 9.272 9.356.874 1.814 1.377 3.826 1.395 5.842.007.813-.028 1.652-.19 2.451-.053.292-.673 1.121-.587.441" fill="#3FE0C5"/></g></svg>